<?xml version="1.0" standalone="no"?>
<!DOCTYPE svg PUBLIC "-//W3C//DTD SVG 20010904//EN" "http://www.w3.org/TR/2001/REC-SVG-20010904/DTD/svg10.dtd">
<svg version="1.0" xmlns="http://www.w3.org/2000/svg"
    width="512.000000pt" height="512.000000pt" viewBox="0 0 512.000000 512.000000"
    preserveAspectRatio="xMidYMid meet">

    <g transform="translate(0.000000,512.000000) scale(0.100000,-0.100000)"
        stroke="none">
        <path
            d="M2410 5114 c-240 -31 -463 -110 -647 -230 -348 -226 -577 -566 -659
-979 -25 -125 -25 -405 0 -530 66 -330 242 -643 475 -840 39 -33 71 -63 71
-66 0 -3 -26 -12 -57 -19 -377 -83 -798 -276 -1088 -499 -250 -192 -408 -430
-477 -721 -29 -123 -38 -642 -13 -755 26 -117 76 -208 164 -295 87 -87 164
-131 277 -160 76 -20 118 -20 2104 -20 1986 0 2028 0 2104 20 113 29 190 73
277 160 88 87 138 178 164 295 26 113 16 631 -13 755 -99 419 -375 720 -895
976 -136 67 -172 75 -238 52 -57 -19 -90 -49 -115 -102 -31 -66 -30 -110 1
-173 30 -60 41 -68 195 -144 130 -65 294 -171 387 -251 115 -97 197 -214 244
-346 43 -123 51 -202 47 -467 -3 -232 -4 -241 -27 -278 -13 -21 -42 -50 -64
-65 l-41 -27 -2026 0 -2026 0 -41 27 c-22 15 -51 44 -64 65 -23 37 -24 46 -27
278 -4 260 4 340 44 457 44 129 127 253 226 339 273 236 687 426 1118 513 223
46 402 65 715 76 278 10 371 25 546 86 497 173 859 597 965 1129 25 125 25
405 0 530 -121 607 -565 1059 -1165 1186 -94 19 -358 33 -441 23z m415 -428
c232 -60 452 -205 596 -395 70 -92 154 -267 186 -386 23 -89 26 -118 26 -265
0 -147 -3 -176 -26 -265 -32 -119 -116 -294 -186 -386 -62 -81 -169 -184 -252
-239 -90 -62 -235 -127 -346 -157 -87 -23 -117 -26 -263 -26 -146 0 -176 3
-263 26 -111 30 -256 95 -346 157 -83 55 -190 158 -252 239 -70 92 -154 267
-186 386 -23 89 -26 118 -26 265 0 147 3 176 26 265 32 119 116 294 186 386
167 220 428 375 707 419 104 16 307 4 419 -24z" />
    </g>
</svg>