<?xml version="1.0" standalone="no"?>
<!DOCTYPE svg PUBLIC "-//W3C//DTD SVG 20010904//EN" "http://www.w3.org/TR/2001/REC-SVG-20010904/DTD/svg10.dtd">
<svg version="1.0" xmlns="http://www.w3.org/2000/svg"
    width="512.000000pt" height="512.000000pt" viewBox="0 0 512.000000 512.000000"
    preserveAspectRatio="xMidYMid meet">

    <g transform="translate(0.000000,512.000000) scale(0.100000,-0.100000)"
        stroke="none">
        <path
            d="M2370 4240 c-282 -36 -558 -141 -780 -298 -122 -86 -326 -290 -412
-412 -376 -532 -408 -1257 -79 -1818 112 -192 305 -402 491 -534 427 -304 992
-387 1499 -222 444 145 827 494 1018 926 236 535 172 1171 -164 1648 -98 138
-302 339 -437 429 -195 130 -406 217 -632 261 -125 24 -384 34 -504 20z m325
-100 c142 -14 236 -33 364 -76 561 -186 968 -664 1068 -1254 21 -126 21 -374
0 -500 -164 -969 -1140 -1562 -2066 -1254 -476 158 -847 529 -1005 1005 -110
329 -110 669 0 998 213 640 796 1069 1484 1090 25 0 95 -4 155 -9z" />
        <path
            d="M2470 3588 c-60 -31 -97 -81 -110 -147 -5 -30 -10 -193 -10 -362 l0
-309 -309 0 c-169 0 -332 -5 -362 -10 -128 -24 -203 -160 -154 -278 20 -47 50
-78 100 -105 38 -21 54 -22 383 -25 l342 -3 0 -308 c0 -170 5 -332 10 -362 24
-128 160 -203 278 -154 47 20 78 50 105 100 21 38 22 54 25 382 l3 342 342 3
c328 3 344 4 382 25 74 39 115 105 115 183 0 78 -41 144 -115 183 -38 21 -54
22 -382 25 l-342 3 -3 342 c-3 328 -4 344 -25 382 -56 105 -172 144 -273 93z
m163 -118 l27 -30 0 -372 c0 -332 2 -373 17 -390 15 -17 40 -18 389 -18 l374
0 32 -29 c27 -24 33 -36 33 -71 0 -35 -6 -47 -33 -71 l-32 -29 -372 0 c-332 0
-373 -2 -390 -17 -17 -15 -18 -40 -18 -389 l0 -374 -29 -32 c-24 -27 -36 -33
-71 -33 -35 0 -47 6 -71 33 l-29 32 0 372 c0 332 -2 373 -17 390 -15 17 -40
18 -389 18 l-374 0 -32 29 c-47 41 -47 101 0 142 l32 29 372 0 c332 0 373 2
390 17 17 15 18 40 18 388 0 365 0 373 21 399 43 54 105 57 152 6z" />
    </g>
</svg>