<?xml version="1.0" standalone="no"?>
<!DOCTYPE svg PUBLIC "-//W3C//DTD SVG 20010904//EN" "http://www.w3.org/TR/2001/REC-SVG-20010904/DTD/svg10.dtd">
<svg version="1.0" xmlns="http://www.w3.org/2000/svg"
    width="512.000000pt" height="512.000000pt" viewBox="0 0 512.000000 512.000000"
    preserveAspectRatio="xMidYMid meet">

    <g transform="translate(0.000000,512.000000) scale(0.100000,-0.100000)"
        stroke="none">
        <path
            d="M2495 5106 c-16 -7 -44 -29 -61 -47 -69 -75 -539 -665 -556 -698 -39
-77 -7 -177 72 -218 38 -20 57 -23 161 -23 l117 0 4 -362 c4 -396 4 -402 64
-462 57 -56 93 -66 265 -66 146 0 158 1 206 25 65 33 101 84 113 161 6 32 10
204 10 382 l0 322 118 0 c105 0 124 3 162 23 81 42 111 139 70 221 -25 50
-554 702 -592 729 -34 25 -113 32 -153 13z m299 -496 c124 -154 226 -282 226
-284 0 -2 -63 -6 -139 -8 -156 -3 -172 -10 -191 -77 -6 -21 -10 -196 -10 -423
l0 -388 -120 0 -120 0 0 388 c0 227 -4 402 -10 423 -19 67 -35 74 -191 77 -76
2 -139 6 -139 8 0 9 452 564 460 564 4 0 110 -126 234 -280z" />
        <path
            d="M1284 4032 c-12 -9 -27 -28 -34 -41 -14 -27 -6 -84 15 -101 8 -7 15
-16 15 -20 0 -4 -31 -62 -70 -128 -79 -136 -89 -182 -47 -222 12 -12 173 -109
357 -215 184 -107 336 -199 338 -204 3 -9 -96 -191 -113 -209 -2 -2 -160 87
-351 197 -366 211 -391 221 -441 186 -12 -8 -50 -65 -84 -125 -35 -61 -66
-107 -70 -102 -3 4 -66 162 -138 351 -114 296 -131 348 -122 368 20 43 13 82
-18 114 -56 56 -144 29 -182 -55 -10 -23 -19 -54 -19 -69 0 -16 73 -218 162
-450 168 -435 186 -471 248 -497 40 -17 128 -9 163 15 16 10 55 64 89 122 33
57 65 103 70 103 5 0 142 -76 304 -170 161 -93 314 -175 339 -182 35 -10 55
-10 92 0 76 20 111 57 192 197 65 111 76 137 79 186 5 71 -10 117 -52 160 -18
19 -168 112 -333 207 l-301 173 61 107 c53 93 61 113 61 158 0 38 -6 61 -24
87 -47 68 -139 98 -186 59z" />
        <path
            d="M3710 4029 c-55 -32 -84 -82 -84 -143 0 -45 8 -65 61 -158 l61 -107
-300 -173 c-166 -95 -316 -188 -334 -207 -42 -43 -57 -89 -52 -160 3 -49 14
-75 79 -186 81 -140 116 -177 192 -197 37 -10 56 -10 92 0 25 7 178 89 340
182 162 94 299 170 304 170 5 0 36 -46 69 -103 34 -58 73 -112 89 -122 35 -24
123 -32 163 -15 62 26 80 62 248 497 89 232 162 434 162 450 -1 40 -33 106
-64 131 -15 11 -51 26 -79 31 -121 25 -823 131 -866 131 -28 0 -60 -9 -81 -21z
m523 -243 c186 -30 341 -57 344 -60 6 -5 -243 -663 -256 -678 -4 -5 -35 41
-70 102 -34 60 -72 117 -84 125 -51 35 -75 25 -432 -181 -187 -108 -344 -198
-350 -200 -10 -4 -125 183 -125 204 0 5 154 99 343 207 188 109 350 207 359
219 33 40 23 88 -42 201 -33 57 -60 106 -60 109 0 10 30 6 373 -48z" />
        <path
            d="M848 3975 c-57 -32 -66 -108 -19 -156 71 -70 192 2 161 96 -6 18 -19
40 -29 49 -26 24 -81 29 -113 11z" />
        <path
            d="M1680 2421 c-14 -5 -159 -85 -322 -180 -163 -94 -301 -171 -306 -171
-5 0 -37 46 -70 103 -33 57 -73 112 -89 122 -17 12 -52 21 -88 23 -50 3 -65 0
-94 -20 -19 -12 -42 -34 -52 -48 -26 -35 -339 -853 -339 -884 0 -63 50 -138
104 -156 47 -15 851 -140 903 -140 95 0 167 71 167 165 0 43 -8 65 -61 157
l-61 107 301 173 c165 95 315 188 333 207 42 43 57 89 52 160 -3 48 -15 75
-77 184 -42 74 -87 139 -107 155 -55 46 -130 62 -194 43z m124 -291 c31 -55
56 -105 54 -111 -2 -6 -154 -97 -338 -204 -184 -106 -345 -203 -357 -215 -40
-39 -32 -86 38 -206 33 -58 58 -108 55 -111 -6 -7 -705 102 -713 111 -6 6 243
663 256 678 4 5 35 -41 70 -102 34 -60 72 -117 84 -125 50 -35 75 -25 437 184
190 110 347 200 350 200 3 1 32 -44 64 -99z" />
        <path
            d="M3312 2417 c-62 -23 -99 -65 -173 -194 -62 -108 -74 -136 -77 -184
-5 -71 10 -117 52 -160 18 -19 168 -112 334 -207 l300 -173 -61 -107 c-53 -92
-61 -114 -61 -157 0 -94 72 -165 168 -165 52 0 855 125 902 140 54 18 104 93
104 155 0 15 -73 216 -162 448 -168 435 -186 471 -248 497 -40 17 -128 9 -163
-15 -16 -10 -55 -64 -89 -122 -33 -57 -64 -103 -69 -103 -9 0 -269 148 -499
283 -132 77 -184 90 -258 64z m423 -391 c357 -206 382 -216 432 -181 12 8 50
65 84 125 35 61 66 107 70 102 14 -16 262 -673 256 -679 -9 -8 -707 -117 -713
-110 -3 3 22 53 55 111 66 114 76 162 43 202 -9 12 -171 110 -359 219 -189
108 -343 202 -343 207 0 21 115 208 125 204 5 -2 163 -92 350 -200z" />
        <path
            d="M2365 1871 c-22 -10 -53 -31 -69 -47 -60 -60 -60 -66 -64 -461 l-4
-363 -117 0 c-104 0 -123 -3 -161 -23 -81 -42 -111 -139 -70 -221 26 -51 555
-702 593 -730 40 -29 134 -29 174 0 38 28 567 679 593 730 41 82 11 179 -70
221 -38 20 -57 23 -162 23 l-118 0 0 323 c0 177 -4 349 -10 381 -12 77 -48
128 -113 161 -48 24 -60 25 -206 25 -130 0 -163 -4 -196 -19z m315 -568 c0
-228 4 -403 10 -424 19 -67 35 -74 191 -77 76 -2 139 -6 139 -8 0 -9 -452
-564 -460 -564 -8 0 -460 555 -460 564 0 2 63 6 139 8 156 3 172 10 191 77 6
21 10 196 10 424 l0 387 120 0 120 0 0 -387z" />
    </g>
</svg>