<?xml version="1.0" standalone="no"?>
<!DOCTYPE svg PUBLIC "-//W3C//DTD SVG 20010904//EN" "http://www.w3.org/TR/2001/REC-SVG-20010904/DTD/svg10.dtd">
<svg version="1.0" xmlns="http://www.w3.org/2000/svg"
    width="512.000000pt" height="512.000000pt" viewBox="0 0 512.000000 512.000000"
    preserveAspectRatio="xMidYMid meet">

    <g transform="translate(0.000000,512.000000) scale(0.100000,-0.100000)" stroke="none">
        <path
            d="M2455 4904 c-337 -33 -602 -131 -846 -313 -296 -220 -509 -538 -600
-893 -45 -177 -49 -253 -49 -965 l0 -671 -195 -297 c-222 -338 -230 -355 -223
-500 3 -82 8 -101 41 -167 61 -124 177 -211 316 -238 32 -6 250 -10 537 -10
l484 0 0 -31 c0 -55 32 -173 65 -244 79 -163 239 -295 418 -342 83 -22 233
-21 317 1 102 28 211 90 284 162 109 108 166 222 189 375 l11 79 481 0 c305 0
503 4 541 11 154 28 283 138 336 287 29 82 28 207 -2 286 -13 33 -106 185
-211 343 l-189 283 0 673 c0 712 -4 788 -49 965 -74 288 -208 520 -425 737
-251 250 -532 395 -871 450 -95 15 -293 26 -360 19z m320 -229 c145 -23 261
-61 400 -130 156 -77 271 -162 388 -285 215 -226 345 -511 377 -829 6 -60 10
-383 10 -772 l0 -668 189 -285 c105 -156 199 -303 210 -325 54 -104 5 -242
-104 -292 -38 -18 -105 -19 -1685 -19 -1570 0 -1647 1 -1685 19 -49 22 -99 77
-115 126 -7 21 -10 63 -8 95 4 56 10 67 209 366 l204 307 6 736 c4 642 7 747
22 826 58 298 181 531 391 740 61 61 146 134 188 163 158 108 373 194 563 226
109 19 330 19 440 1z m215 -3832 c-1 -33 -33 -149 -50 -184 -28 -54 -111 -142
-164 -173 -131 -76 -316 -73 -444 8 -50 32 -125 114 -152 166 -17 34 -49 150
-50 183 0 4 194 7 430 7 237 0 430 -3 430 -7z" />
    </g>
</svg>