<?xml version="1.0" standalone="no"?>
<!DOCTYPE svg PUBLIC "-//W3C//DTD SVG 20010904//EN" "http://www.w3.org/TR/2001/REC-SVG-20010904/DTD/svg10.dtd">
<svg version="1.0" xmlns="http://www.w3.org/2000/svg"
    width="512.000000pt" height="512.000000pt" viewBox="0 0 512.000000 512.000000"
    preserveAspectRatio="xMidYMid meet">

    <g transform="translate(0.000000,512.000000) scale(0.100000,-0.100000)"
        stroke="none">
        <path
            d="M740 5110 c-170 -21 -317 -128 -393 -282 -45 -94 -57 -153 -57 -291
l0 -113 -58 -12 c-107 -22 -194 -101 -222 -202 -6 -22 -10 -580 -10 -1523 l0
-1488 25 -24 c31 -32 69 -32 100 0 l25 24 0 1066 0 1065 2046 0 2046 0 29 29
c34 35 36 59 8 95 l-20 26 -2055 0 -2054 0 0 341 c0 389 1 393 74 429 23 11
47 20 53 20 6 0 13 -29 17 -64 14 -137 71 -254 175 -356 153 -151 295 -180
403 -82 125 112 98 286 -58 377 -24 14 -48 39 -58 59 -33 70 -56 66 342 66
l359 0 11 -78 c28 -200 143 -362 317 -448 67 -33 80 -36 130 -31 79 8 138 45
175 110 62 108 30 233 -80 307 -59 39 -86 71 -96 113 l-6 27 360 0 360 0 6
-31 c3 -17 6 -43 6 -58 0 -50 57 -189 103 -254 59 -82 123 -138 211 -182 84
-43 138 -45 213 -11 123 58 164 212 88 328 -14 21 -49 53 -79 72 -59 38 -82
66 -88 106 l-3 25 360 0 360 0 6 -60 c9 -85 25 -140 67 -219 66 -126 224 -256
331 -272 154 -23 292 125 252 273 -16 60 -50 103 -115 148 -60 42 -85 74 -86
113 l0 22 297 0 c278 0 299 -1 339 -20 73 -36 74 -40 74 -429 l0 -341 -230 0
c-217 0 -231 -1 -250 -20 -25 -25 -26 -71 -1 -101 19 -24 21 -24 250 -27 l231
-3 0 -1537 c0 -1506 0 -1538 -20 -1569 -10 -18 -31 -40 -47 -50 -26 -17 -128
-18 -2343 -18 -2215 0 -2317 1 -2343 18 -16 10 -37 32 -47 50 -19 30 -20 53
-20 370 l0 338 -25 24 c-31 32 -69 32 -100 0 l-25 -24 0 -345 c0 -323 1 -349
20 -400 36 -94 113 -156 221 -176 71 -14 4567 -14 4638 0 29 5 68 17 86 26 53
25 113 93 135 151 20 53 20 79 20 2021 0 1256 -4 1980 -10 2002 -28 101 -115
180 -222 202 l-58 12 0 106 c0 126 -13 203 -46 279 -146 329 -573 409 -823
153 -115 -117 -151 -216 -151 -414 l0 -128 -75 0 -75 0 0 98 c0 184 -28 285
-109 393 -214 284 -637 266 -833 -35 -58 -89 -78 -168 -85 -323 l-6 -133 -67
0 -67 0 -6 133 c-10 205 -51 309 -162 417 -247 237 -641 172 -800 -132 -46
-87 -65 -176 -65 -310 l0 -108 -75 0 -75 0 0 128 c0 203 -33 295 -150 413
-114 115 -264 169 -420 149z m170 -162 c86 -25 169 -98 217 -191 25 -48 28
-63 31 -194 l4 -143 -75 0 -75 0 -4 128 c-3 120 -5 131 -30 170 -85 127 -273
126 -353 -3 l-30 -48 -3 -216 c-2 -146 1 -230 9 -259 19 -68 63 -127 126 -169
68 -45 86 -80 62 -121 -23 -41 -61 -50 -112 -25 -59 29 -136 101 -174 164 -57
95 -65 151 -61 412 3 230 3 233 31 292 80 171 260 255 437 203z m1200 -11 c77
-28 169 -121 198 -200 18 -48 22 -79 22 -187 l0 -130 -75 0 -75 0 0 115 c0
123 -11 169 -53 213 -53 57 -149 79 -229 53 -46 -15 -113 -87 -127 -137 -17
-60 -14 -420 3 -478 19 -64 59 -118 109 -152 72 -48 87 -65 87 -100 0 -37 -38
-74 -75 -74 -32 0 -138 74 -180 124 -44 55 -82 138 -96 211 -6 35 -9 144 -7
269 5 248 15 288 99 381 105 114 249 147 399 92z m1167 1 c29 -10 75 -40 103
-65 96 -87 130 -176 130 -350 l0 -103 -74 0 -74 0 -4 118 c-3 96 -8 124 -26
159 -46 88 -139 132 -236 111 -38 -8 -60 -21 -97 -58 -64 -64 -72 -106 -67
-353 3 -174 5 -197 26 -242 26 -58 91 -128 135 -146 85 -35 49 -167 -39 -145
-47 12 -134 77 -174 130 -84 113 -100 181 -100 427 0 204 10 272 53 352 85
162 268 230 444 165z m1117 17 c94 -15 202 -99 245 -189 31 -68 40 -120 41
-238 l0 -108 -75 0 -75 0 0 103 c0 134 -11 171 -69 228 -36 36 -57 49 -96 57
-103 22 -200 -27 -240 -120 -12 -30 -15 -81 -15 -255 0 -120 5 -235 10 -255
15 -53 67 -117 130 -160 62 -41 78 -73 58 -115 -20 -43 -59 -51 -114 -25 -57
28 -145 110 -178 166 -51 87 -57 133 -54 403 3 245 3 249 30 305 32 70 106
146 171 177 48 23 134 41 172 35 11 -2 38 -6 59 -9z m-3552 -312 c15 -14 18
-32 18 -120 l0 -103 -60 0 -60 0 0 102 c0 80 3 105 17 120 20 22 61 23 85 1z
m1178 -2 c5 -11 10 -65 10 -120 l0 -101 -60 0 -60 0 0 98 c0 116 12 142 65
142 24 0 38 -6 45 -19z m1177 -11 c7 -15 13 -63 13 -117 l0 -93 -66 0 -66 0 4
103 c4 121 13 140 67 135 26 -2 39 -10 48 -28z m1167 8 c12 -17 16 -48 16
-120 l0 -98 -60 0 -60 0 0 108 c0 71 4 112 12 120 21 21 75 15 92 -10z" />
        <path
            d="M2523 3169 c-44 -13 -163 -152 -210 -246 -33 -67 -35 -77 -31 -142 4
-51 12 -82 32 -114 31 -54 96 -112 142 -127 34 -12 34 -12 34 -76 l0 -64 -39
0 c-76 0 -130 -35 -162 -105 -16 -34 -19 -66 -19 -212 l0 -173 -75 0 c-41 0
-85 -5 -99 -11 -51 -23 -55 -103 -7 -128 13 -8 249 -11 733 -11 659 0 716 -1
748 -18 102 -51 108 -191 9 -232 -26 -11 -45 -11 -113 1 -114 19 -231 16 -371
-11 -136 -25 -242 -23 -335 7 -42 13 -88 18 -195 18 -107 0 -153 -5 -195 -18
-93 -30 -199 -32 -335 -7 -140 27 -257 30 -371 11 -93 -16 -129 -8 -164 37
-28 35 -26 100 3 143 38 57 75 69 213 69 113 0 122 1 142 23 31 33 29 80 -5
107 -26 20 -37 22 -168 18 -159 -3 -200 -17 -269 -86 -54 -53 -78 -106 -84
-185 -5 -75 13 -137 53 -186 l24 -28 3 -409 c3 -402 3 -410 26 -459 30 -65 85
-122 147 -151 l50 -24 930 0 930 0 50 24 c62 29 117 86 147 151 23 49 23 57
26 459 l3 409 24 28 c40 49 58 111 53 186 -8 109 -67 196 -167 245 -45 22 -55
23 -408 26 l-363 3 0 172 c0 146 -3 178 -19 212 -32 70 -86 105 -162 105 l-39
0 0 64 0 64 37 13 c54 17 136 103 156 163 39 114 11 208 -102 348 -91 113
-136 138 -208 117z m138 -273 c45 -67 50 -112 19 -163 -68 -112 -250 -63 -250
68 0 39 36 102 96 168 l37 42 29 -28 c16 -15 47 -54 69 -87z m47 -818 l2 -168
-145 0 -145 0 0 163 c0 90 3 167 7 171 4 3 68 5 142 4 l136 -3 3 -167z m-675
-730 c141 -24 245 -21 372 12 104 26 217 26 320 0 126 -32 240 -36 375 -12
187 33 209 34 313 18 53 -9 110 -16 127 -16 l30 0 0 -80 0 -80 -1005 0 -1005
0 0 80 0 80 38 1 c20 0 71 7 112 14 86 16 153 13 323 -17z m-263 -313 c0 -3
-18 -41 -40 -85 l-40 -80 -65 0 -65 0 0 85 0 85 105 0 c58 0 105 -2 105 -5z
m390 -1 c0 -4 -19 -42 -42 -85 l-43 -79 -107 0 -108 0 42 85 42 85 108 0 c60
0 108 -3 108 -6z m388 -2 c-1 -4 -21 -43 -43 -85 l-40 -77 -108 0 c-61 0 -107
4 -105 9 2 5 21 43 43 85 l40 76 108 0 c60 0 107 -4 105 -8z m350 -77 l-42
-85 -108 0 c-60 0 -108 3 -108 6 0 3 19 42 41 85 l41 79 109 0 109 0 -42 -85z
m389 3 l-44 -83 -107 -3 c-58 -1 -106 0 -106 3 0 3 18 41 40 85 l40 80 111 0
111 0 -45 -82z m283 -3 l0 -85 -81 0 -81 0 35 63 c19 34 40 72 46 85 9 16 21
22 46 22 l35 0 0 -85z m-5 -246 c16 -24 -7 -101 -40 -137 l-33 -37 -909 -3
c-665 -2 -915 1 -936 9 -15 6 -38 25 -52 40 -24 29 -43 108 -30 128 9 15 1991
15 2000 0z" />
        <path
            d="M1547 2953 c-8 -10 -19 -31 -22 -46 -7 -26 3 -38 116 -152 132 -134
152 -145 200 -106 17 13 23 29 23 56 0 34 -9 46 -115 151 -103 102 -119 114
-151 114 -21 0 -41 -7 -51 -17z" />
        <path
            d="M3381 2856 c-106 -105 -115 -117 -115 -151 0 -27 6 -43 23 -56 48
-39 68 -28 200 106 113 114 123 126 116 152 -10 43 -34 63 -73 63 -32 0 -48
-12 -151 -114z" />
        <path
            d="M1397 2472 c-24 -27 -22 -85 4 -108 18 -16 40 -20 140 -23 138 -4
182 2 210 30 25 25 24 69 -1 97 -20 21 -29 22 -179 22 -140 0 -160 -2 -174
-18z" />
        <path
            d="M3380 2470 c-25 -25 -26 -74 -1 -99 28 -28 72 -34 210 -30 138 5 161
16 161 79 0 65 -15 70 -193 70 -144 0 -159 -2 -177 -20z" />
    </g>
</svg>