<?xml version="1.0" standalone="no"?>
<!DOCTYPE svg PUBLIC "-//W3C//DTD SVG 20010904//EN" "http://www.w3.org/TR/2001/REC-SVG-20010904/DTD/svg10.dtd">
<svg version="1.0" xmlns="http://www.w3.org/2000/svg"
    width="512.000000pt" height="512.000000pt" viewBox="0 0 512.000000 512.000000"
    preserveAspectRatio="xMidYMid meet">

    <g transform="translate(0.000000,512.000000) scale(0.100000,-0.100000)"
        stroke="none">
        <path
            d="M1210 5099 c-56 -25 -86 -53 -113 -104 -19 -36 -22 -59 -25 -212 l-4
-173 -393 0 -394 0 -15 -22 c-14 -19 -16 -64 -16 -290 0 -322 -5 -308 115
-308 l75 0 2 -1527 3 -1528 26 -55 c37 -80 81 -125 157 -162 l67 -33 535 -3
c582 -3 582 -3 588 51 7 59 27 57 -542 57 -578 0 -593 1 -655 62 -72 70 -66
-76 -69 1616 l-2 1522 1430 0 1430 0 0 -619 c0 -675 -2 -651 55 -651 56 0 55
-9 55 657 l0 613 79 0 c116 0 111 -15 111 316 0 250 -1 272 -18 287 -17 15
-60 17 -410 17 l-392 0 0 163 c0 149 -2 166 -24 212 -28 60 -56 87 -116 114
-44 20 -62 21 -770 21 -708 0 -726 -1 -770 -21z m1532 -127 l33 -32 3 -165 3
-165 -801 0 -801 0 3 164 c3 159 4 165 28 191 14 15 34 31 45 36 11 4 343 7
737 6 l718 -2 32 -33z m858 -672 l0 -200 -1620 0 -1620 0 0 200 0 200 1620 0
1620 0 0 -200z" />
        <path
            d="M1013 3537 c-161 -161 -213 -218 -213 -237 0 -35 415 -450 450 -450
35 0 450 415 450 450 0 35 -415 450 -450 450 -19 0 -76 -52 -237 -213z m397
-82 l155 -155 -158 -158 -157 -157 -157 157 -158 158 155 155 c85 85 157 155
160 155 3 0 75 -70 160 -155z" />
        <path
            d="M2473 3537 c-161 -161 -213 -218 -213 -237 0 -35 415 -450 450 -450
35 0 450 415 450 450 0 19 -52 76 -213 237 -161 161 -218 213 -237 213 -19 0
-76 -52 -237 -213z m397 -82 l155 -155 -158 -158 -157 -157 -157 157 -158 158
155 155 c85 85 157 155 160 155 3 0 75 -70 160 -155z" />
        <path
            d="M4348 3688 c-9 -7 -45 -65 -79 -128 -34 -63 -70 -126 -80 -140 -10
-15 -78 -59 -154 -100 -195 -106 -197 -121 -19 -219 66 -36 132 -74 146 -83
15 -10 56 -73 99 -153 41 -75 82 -141 93 -147 37 -20 61 6 141 151 l77 141
140 76 c145 80 170 103 149 142 -6 11 -73 54 -150 97 l-140 76 -76 139 c-84
155 -108 178 -147 148z m95 -278 l52 -93 102 -56 102 -55 -52 -30 c-162 -90
-156 -85 -209 -181 -27 -49 -53 -94 -57 -98 -5 -5 -32 34 -60 85 -28 52 -58
101 -68 110 -10 8 -57 36 -105 62 -49 26 -88 49 -88 51 0 2 39 25 88 51 48 26
95 54 105 62 10 9 40 58 68 110 33 60 55 90 61 84 5 -5 33 -51 61 -102z" />
        <path
            d="M1415 2676 c-39 -18 -80 -62 -99 -108 -14 -32 -16 -121 -16 -675 0
-599 2 -640 19 -678 22 -48 54 -79 103 -100 32 -13 99 -15 443 -15 l405 0 0
-22 c0 -48 51 -230 89 -317 59 -137 135 -252 242 -365 204 -214 439 -337 729
-382 125 -19 304 -14 425 11 373 77 693 320 864 655 210 412 181 887 -79 1276
-67 100 -222 256 -320 321 -148 99 -320 171 -485 204 -104 21 -368 18 -473 -5
-217 -46 -425 -149 -570 -281 l-54 -49 -265 272 -265 272 -331 0 c-255 -1
-339 -4 -362 -14z m615 -343 c0 -215 2 -249 17 -265 15 -16 36 -18 255 -18
131 0 238 -3 238 -6 0 -3 -13 -22 -30 -42 -137 -172 -236 -440 -247 -674 l-6
-118 -397 0 c-377 0 -399 1 -421 19 l-24 19 -3 641 -2 641 24 25 25 25 286 0
285 0 0 -247z m280 -8 l165 -165 -168 0 -167 0 0 165 c0 91 1 165 3 165 1 0
76 -74 167 -165z m1386 50 c239 -42 453 -153 621 -322 171 -173 279 -385 318
-623 111 -687 -429 -1320 -1125 -1320 -363 0 -723 186 -933 481 -66 94 -143
260 -173 376 -32 121 -43 332 -24 451 70 434 367 784 780 918 166 53 367 68
536 39z" />
        <path
            d="M3440 2171 c-43 -13 -84 -38 -112 -68 -30 -31 -338 -560 -338 -580 0
-20 38 -53 59 -53 28 0 49 31 211 313 87 151 152 255 168 265 17 11 46 17 84
17 51 0 61 -4 88 -30 26 -26 242 -386 235 -393 -1 -1 -16 3 -33 9 -39 13 -69
-1 -78 -37 -10 -38 15 -56 135 -104 112 -44 146 -46 160 -7 5 12 14 71 22 130
14 120 10 140 -35 145 -35 4 -54 -12 -62 -54 -6 -33 -10 -28 -120 163 -69 120
-128 211 -150 230 -60 53 -160 76 -234 54z" />
        <path
            d="M2835 1373 c-117 -41 -125 -46 -125 -84 0 -40 37 -64 75 -49 15 6 30
9 32 6 2 -2 -36 -72 -84 -157 -85 -147 -88 -155 -88 -213 1 -68 24 -123 72
-168 58 -56 75 -58 416 -58 230 0 316 3 325 12 20 20 14 65 -10 82 -19 14 -67
16 -323 16 -330 0 -329 0 -361 62 -24 47 -14 80 75 232 61 107 82 135 86 120
19 -57 25 -64 54 -64 30 0 61 22 61 42 0 11 -26 161 -35 205 -6 28 -32 53 -53
52 -9 0 -62 -16 -117 -36z" />
        <path
            d="M4029 1389 c-12 -12 -19 -29 -16 -39 3 -10 60 -113 127 -229 125
-217 134 -242 110 -301 -23 -54 -47 -60 -266 -60 l-197 0 21 23 c24 26 29 66
10 85 -28 28 -65 13 -142 -59 -84 -78 -100 -101 -91 -127 8 -26 179 -162 203
-162 52 0 68 62 26 101 l-26 24 219 5 c219 5 220 5 261 33 65 43 96 97 100
177 5 77 8 70 -136 320 -139 243 -154 258 -203 209z" />
        <path
            d="M2020 790 c-11 -11 -20 -33 -20 -50 0 -65 79 -94 119 -44 27 35 26
59 -4 89 -29 30 -68 32 -95 5z" />
    </g>
</svg>