<?xml version="1.0" standalone="no"?>
<!DOCTYPE svg PUBLIC "-//W3C//DTD SVG 20010904//EN" "http://www.w3.org/TR/2001/REC-SVG-20010904/DTD/svg10.dtd">
<svg version="1.0" xmlns="http://www.w3.org/2000/svg"
    width="512.000000pt" height="512.000000pt" viewBox="0 0 512.000000 512.000000"
    preserveAspectRatio="xMidYMid meet">

    <g transform="translate(0.000000,512.000000) scale(0.100000,-0.100000)"
        stroke="none">
        <path
            d="M1333 4850 c-625 -66 -1167 -570 -1305 -1213 -31 -147 -31 -409 0
-554 47 -217 147 -436 282 -614 51 -68 405 -446 1024 -1094 521 -545 961
-1003 979 -1019 48 -42 141 -83 207 -91 69 -8 163 13 228 51 56 33 1943 2004
2034 2125 162 214 266 442 315 685 24 121 24 385 0 504 -117 588 -584 1057
-1188 1192 -89 20 -132 23 -289 23 -197 0 -272 -11 -429 -61 -119 -38 -326
-146 -425 -221 -145 -111 -166 -123 -212 -123 -31 0 -53 8 -87 33 -25 17 -80
58 -123 89 -309 224 -663 324 -1011 288z" />
    </g>
</svg>