<?xml version="1.0" standalone="no"?>
<!DOCTYPE svg PUBLIC "-//W3C//DTD SVG 20010904//EN" "http://www.w3.org/TR/2001/REC-SVG-20010904/DTD/svg10.dtd">
<svg version="1.0" xmlns="http://www.w3.org/2000/svg"
    width="512.000000pt" height="512.000000pt" viewBox="0 0 512.000000 512.000000"
    preserveAspectRatio="xMidYMid meet">

    <g transform="translate(0.000000,512.000000) scale(0.100000,-0.100000)"
        stroke="none">
        <path
            d="M1400 4844 c-376 -31 -703 -179 -959 -435 -253 -253 -399 -566 -433
-931 -31 -336 66 -699 260 -973 90 -126 222 -261 1158 -1191 690 -685 1013
-998 1044 -1014 57 -30 147 -32 205 -5 27 13 143 124 345 330 167 170 624 632
1015 1025 391 393 734 744 762 780 283 364 384 818 281 1265 -136 588 -631
1044 -1233 1136 -103 15 -339 15 -435 0 -310 -51 -594 -188 -797 -385 l-53
-50 -52 50 c-203 196 -499 339 -793 383 -82 12 -250 20 -315 15z m200 -164
c237 -21 450 -95 635 -220 91 -62 152 -116 245 -215 41 -44 77 -81 80 -82 3
-1 39 35 80 80 172 187 338 297 563 372 276 92 584 91 857 -2 222 -75 447
-232 591 -411 237 -294 342 -647 299 -1002 -18 -149 -67 -313 -131 -441 -86
-172 -122 -213 -818 -914 -367 -369 -828 -836 -1025 -1037 -201 -205 -369
-369 -383 -373 -13 -3 -36 1 -53 10 -48 25 -2071 2050 -2123 2125 -136 196
-213 389 -242 610 -18 133 -18 217 0 350 74 549 477 993 1015 1120 80 18 132
26 280 39 8 0 67 -4 130 -9z" />
    </g>
</svg>