<?xml version="1.0" standalone="no"?>
<!DOCTYPE svg PUBLIC "-//W3C//DTD SVG 20010904//EN" "http://www.w3.org/TR/2001/REC-SVG-20010904/DTD/svg10.dtd">
<svg version="1.0" xmlns="http://www.w3.org/2000/svg"
    width="512.000000pt" height="512.000000pt" viewBox="0 0 512.000000 512.000000"
    preserveAspectRatio="xMidYMid meet">

    <g transform="translate(0.000000,512.000000) scale(0.100000,-0.100000)"
        stroke="none">
        <path
            d="M677 4622 l-387 -387 2 -1741 3 -1741 34 -50 c19 -28 56 -65 84 -84
l50 -34 1343 -5 1343 -5 32 -50 c114 -182 316 -328 534 -386 118 -32 328 -32
443 -1 171 46 313 132 435 262 112 120 190 269 221 422 20 97 20 275 1 368
-73 346 -351 624 -698 696 -126 27 -324 17 -449 -22 -17 -5 -18 69 -18 1468
l0 1473 -24 51 c-13 27 -42 66 -66 87 -84 71 -2 67 -1314 67 l-1181 0 -388
-388z m2783 266 c25 -13 55 -38 67 -57 l23 -34 0 -1492 0 -1491 -37 -18 c-113
-54 -270 -203 -343 -324 -94 -159 -136 -330 -127 -512 5 -91 27 -204 52 -263
7 -16 -59 -17 -1292 -17 l-1300 0 -34 23 c-18 12 -44 38 -56 56 l-23 34 0
1683 0 1683 273 3 272 3 51 27 c58 30 98 73 125 133 17 36 19 70 19 313 l0
272 1143 0 1143 0 44 -22z m-2432 -353 c-3 -161 -4 -172 -27 -204 -45 -63 -78
-71 -326 -71 l-220 0 285 285 285 285 3 -62 c2 -35 2 -139 0 -233z m3100
-2756 c137 -31 268 -105 372 -209 103 -103 173 -229 211 -380 18 -71 21 -104
17 -215 -4 -112 -9 -142 -35 -217 -90 -258 -288 -445 -550 -520 -102 -29 -304
-31 -403 -4 -227 62 -416 217 -515 421 -67 137 -80 196 -79 360 0 131 2 146
33 235 40 119 95 212 174 296 204 218 480 301 775 233z" />
        <path
            d="M1821 4330 c-182 -38 -358 -144 -471 -283 -60 -73 -132 -215 -155
-306 -92 -362 84 -745 417 -910 133 -66 212 -84 358 -84 133 0 217 17 324 67
104 48 181 103 258 184 152 161 226 365 214 587 -7 122 -25 195 -76 301 -98
204 -273 354 -495 424 -79 25 -295 36 -374 20z m302 -106 c365 -81 606 -448
533 -814 -68 -342 -389 -592 -727 -566 -182 14 -321 78 -450 206 -73 72 -94
101 -132 180 -126 262 -94 542 90 764 158 193 435 286 686 230z" />
        <path
            d="M1936 4044 c-9 -8 -16 -30 -16 -47 0 -29 -5 -35 -52 -57 -103 -50
-156 -165 -124 -273 18 -62 64 -120 114 -146 21 -10 68 -24 106 -29 53 -9 76
-18 98 -39 79 -76 40 -209 -67 -229 -49 -9 -80 1 -124 41 -55 50 -103 45 -103
-11 0 -35 76 -109 122 -119 27 -6 30 -11 30 -44 0 -44 14 -61 50 -61 36 0 50
17 50 61 0 33 3 38 29 44 40 9 107 69 133 119 29 56 29 146 0 202 -43 83 -109
125 -224 139 -167 21 -157 265 10 265 51 0 77 -12 114 -51 33 -35 62 -37 83
-5 15 22 15 27 1 54 -17 33 -66 72 -113 91 -28 11 -33 19 -33 46 0 37 -22 65
-50 65 -10 0 -26 -7 -34 -16z" />
        <path
            d="M822 2234 c-24 -17 -29 -53 -10 -72 17 -17 2299 -17 2316 0 19 19 14
55 -10 72 -20 14 -145 16 -1148 16 -1003 0 -1128 -2 -1148 -16z" />
        <path
            d="M812 1778 c-19 -19 -14 -55 10 -72 20 -14 145 -16 1143 -16 1194 0
1166 -1 1173 48 8 55 74 52 -1167 52 -879 0 -1150 -3 -1159 -12z" />
        <path
            d="M812 1328 c-19 -19 -14 -55 10 -72 20 -14 109 -16 768 -16 659 0 748
2 768 16 24 17 29 53 10 72 -17 17 -1539 17 -1556 0z" />
        <path
            d="M4265 1378 c-11 -6 -133 -94 -271 -195 -139 -100 -254 -183 -257
-183 -3 0 -26 35 -53 78 -78 128 -109 152 -192 152 -54 0 -100 -25 -136 -73
-16 -21 -21 -43 -21 -85 0 -55 4 -64 109 -235 60 -98 124 -191 142 -207 41
-35 93 -47 144 -31 44 13 694 484 734 531 64 76 37 198 -55 245 -33 18 -115
19 -144 3z m119 -110 c27 -38 20 -64 -26 -101 -116 -94 -652 -477 -668 -477
-10 0 -27 8 -39 18 -25 20 -209 316 -217 350 -10 36 20 72 60 72 40 0 46 -6
126 -138 35 -58 73 -108 86 -114 26 -12 5 -26 374 246 242 177 271 191 304
144z" />
    </g>
</svg>