<?xml version="1.0" standalone="no"?>
<!DOCTYPE svg PUBLIC "-//W3C//DTD SVG 20010904//EN" "http://www.w3.org/TR/2001/REC-SVG-20010904/DTD/svg10.dtd">
<svg version="1.0" xmlns="http://www.w3.org/2000/svg"
    width="512.000000pt" height="512.000000pt" viewBox="0 0 512.000000 512.000000"
    preserveAspectRatio="xMidYMid meet">

    <g transform="translate(0.000000,512.000000) scale(0.100000,-0.100000)"
        stroke="none">
        <path
            d="M1026 4264 c-34 -11 -64 -31 -102 -68 -91 -92 -84 44 -84 -1636 0
-1680 -7 -1544 84 -1636 92 -91 -44 -84 1636 -84 1680 0 1544 -7 1636 84 91
92 84 -44 84 1636 0 1680 7 1544 -84 1636 -92 91 45 84 -1640 83 -1287 0
-1487 -2 -1530 -15z m3002 -236 c9 -9 12 -162 12 -627 l0 -615 -167 166 c-180
178 -203 193 -268 168 -18 -6 -228 -208 -510 -491 l-480 -479 -225 226 c-124
124 -237 232 -252 240 -37 19 -87 18 -123 -5 -16 -10 -232 -165 -480 -344
l-450 -326 -3 1036 c-1 757 1 1039 9 1049 16 19 2918 21 2937 2z m12 -2253 c0
-509 -3 -674 -12 -683 -17 -17 -2919 -17 -2936 0 -9 9 -12 85 -11 283 l0 270
112 79 c62 44 282 203 490 353 208 150 381 273 385 273 4 0 115 -108 247 -239
154 -154 250 -242 268 -246 70 -18 66 -21 577 490 l485 485 197 -197 198 -198
0 -670z" />
        <path
            d="M1565 3810 c-114 -38 -195 -120 -237 -238 -29 -84 -22 -225 15 -303
58 -119 158 -196 290 -220 176 -33 365 68 429 229 18 46 22 77 23 162 0 94 -3
111 -27 163 -38 81 -115 158 -191 193 -84 38 -213 44 -302 14z m158 -224 c46
-19 94 -77 102 -124 12 -72 -44 -161 -112 -178 -64 -17 -155 48 -169 121 -14
75 24 152 91 181 38 17 49 17 88 0z" />
    </g>
</svg>