<?xml version="1.0" standalone="no"?>
<!DOCTYPE svg PUBLIC "-//W3C//DTD SVG 20010904//EN" "http://www.w3.org/TR/2001/REC-SVG-20010904/DTD/svg10.dtd">
<svg version="1.0" xmlns="http://www.w3.org/2000/svg"
    width="364.000000pt" height="203.000000pt" viewBox="0 0 364.000000 203.000000"
    preserveAspectRatio="xMidYMid meet">

    <g transform="translate(0.000000,203.000000) scale(0.100000,-0.100000)"
        stroke="none">
        <path
            d="M1985 1811 c-107 -51 -174 -142 -183 -248 l-4 -53 38 0 c113 0 242
150 243 283 1 57 -8 59 -94 18z" />
        <path
            d="M1488 1476 c-122 -33 -223 -148 -258 -295 -19 -81 -8 -246 25 -356
66 -225 227 -435 333 -435 12 0 61 14 109 30 106 37 152 38 246 4 96 -34 156
-34 207 0 54 35 121 123 174 226 63 123 63 122 17 148 -47 27 -93 77 -123 135
-16 30 -23 66 -26 129 -4 76 -2 92 21 140 24 52 65 102 108 132 21 14 21 15 3
39 -28 37 -104 86 -159 103 -75 22 -149 18 -245 -16 -47 -16 -97 -30 -112 -30
-15 0 -67 14 -116 30 -98 33 -132 35 -204 16z" />
    </g>
</svg>