<?xml version="1.0" standalone="no"?>
<!DOCTYPE svg PUBLIC "-//W3C//DTD SVG 20010904//EN" "http://www.w3.org/TR/2001/REC-SVG-20010904/DTD/svg10.dtd">
<svg version="1.0" xmlns="http://www.w3.org/2000/svg"
    width="512.000000pt" height="512.000000pt" viewBox="0 0 512.000000 512.000000"
    preserveAspectRatio="xMidYMid meet">

    <g transform="translate(0.000000,512.000000) scale(0.100000,-0.100000)" stroke="none">
        <path
            d="M623 4785 c-154 -42 -261 -155 -293 -311 -7 -33 -10 -286 -8 -745 l3
-694 23 -58 c45 -111 133 -195 246 -234 47 -17 104 -18 771 -18 l720 0 58 23
c111 45 195 133 234 246 17 47 18 104 18 766 0 662 -1 719 -18 766 -39 113
-123 201 -234 246 l-58 23 -705 2 c-585 2 -714 0 -757 -12z m1432 -330 l25
-24 0 -671 0 -671 -25 -24 -24 -25 -671 0 -671 0 -24 25 -25 24 0 671 0 671
25 24 24 25 671 0 671 0 24 -25z" />
        <path
            d="M3023 4785 c-154 -42 -261 -155 -293 -311 -7 -33 -10 -286 -8 -745
l3 -694 23 -58 c45 -111 133 -195 246 -234 47 -17 104 -18 771 -18 l720 0 58
23 c111 45 195 133 234 246 17 47 18 104 18 766 0 662 -1 719 -18 766 -39 113
-123 201 -234 246 l-58 23 -705 2 c-585 2 -714 0 -757 -12z m1432 -330 l25
-24 0 -671 0 -671 -25 -24 -24 -25 -671 0 -671 0 -24 25 -25 24 0 671 0 671
25 24 24 25 671 0 671 0 24 -25z" />
        <path
            d="M623 2385 c-154 -42 -261 -155 -293 -311 -7 -33 -10 -286 -8 -745 l3
-694 23 -58 c45 -111 133 -195 246 -234 47 -17 104 -18 771 -18 l720 0 58 23
c111 45 195 133 234 246 17 47 18 104 18 766 0 662 -1 719 -18 766 -39 113
-123 201 -234 246 l-58 23 -705 2 c-585 2 -714 0 -757 -12z m1432 -330 l25
-24 0 -671 0 -671 -25 -24 -24 -25 -671 0 -671 0 -24 25 -25 24 0 671 0 671
25 24 24 25 671 0 671 0 24 -25z" />
        <path
            d="M3023 2385 c-154 -42 -261 -155 -293 -311 -7 -33 -10 -286 -8 -745
l3 -694 23 -58 c45 -111 133 -195 246 -234 47 -17 104 -18 771 -18 l720 0 58
23 c111 45 195 133 234 246 17 47 18 104 18 766 0 662 -1 719 -18 766 -39 113
-123 201 -234 246 l-58 23 -705 2 c-585 2 -714 0 -757 -12z m1432 -330 l25
-24 0 -671 0 -671 -25 -24 -24 -25 -671 0 -671 0 -24 25 -25 24 0 671 0 671
25 24 24 25 671 0 671 0 24 -25z" />
    </g>
</svg>