<?xml version="1.0" standalone="no"?>
<!DOCTYPE svg PUBLIC "-//W3C//DTD SVG 20010904//EN" "http://www.w3.org/TR/2001/REC-SVG-20010904/DTD/svg10.dtd">
<svg version="1.0" xmlns="http://www.w3.org/2000/svg"
    width="512.000000pt" height="512.000000pt" viewBox="0 0 512.000000 512.000000"
    preserveAspectRatio="xMidYMid meet">

    <g transform="translate(0.000000,512.000000) scale(0.100000,-0.100000)"
        stroke="none">
        <path
            d="M2395 4793 c-304 -48 -545 -250 -647 -543 l-33 -95 -3 -838 c-3 -809
-2 -840 17 -922 39 -162 112 -287 234 -401 115 -106 233 -169 375 -199 89 -19
355 -19 444 0 305 64 551 313 613 620 14 71 15 178 13 910 l-3 830 -33 95
c-90 259 -286 446 -544 521 -58 17 -106 22 -238 24 -91 2 -178 1 -195 -2z" />
        <path
            d="M992 2893 c-18 -9 -43 -30 -55 -47 -20 -29 -22 -42 -21 -171 2 -213
51 -417 154 -633 233 -488 690 -831 1224 -918 l106 -17 0 -233 0 -233 -294 -3
c-281 -3 -296 -4 -323 -24 -98 -73 -98 -195 0 -268 28 -21 33 -21 777 -21 744
0 749 0 777 21 98 73 98 195 0 268 -27 20 -42 21 -323 24 l-294 3 0 233 0 233
106 17 c761 124 1345 772 1381 1532 7 147 -4 186 -60 226 -47 34 -132 37 -176
6 -59 -40 -74 -77 -82 -207 -13 -197 -52 -348 -136 -518 -179 -368 -525 -631
-943 -720 -118 -25 -382 -25 -500 0 -413 88 -753 344 -938 709 -85 166 -128
329 -141 529 -8 129 -23 168 -81 206 -40 28 -109 30 -158 6z" />
    </g>
</svg>