<?xml version="1.0" standalone="no"?>
<!DOCTYPE svg PUBLIC "-//W3C//DTD SVG 20010904//EN" "http://www.w3.org/TR/2001/REC-SVG-20010904/DTD/svg10.dtd">
<svg version="1.0" xmlns="http://www.w3.org/2000/svg"
    width="512.000000pt" height="512.000000pt" viewBox="0 0 512.000000 512.000000"
    preserveAspectRatio="xMidYMid meet">
    <metadata> Created by potrace 1.16, written by Peter Selinger 2001-2019 </metadata>
    <g transform="translate(0.000000,512.000000) scale(0.100000,-0.100000)"
        stroke="none">
        <path
            d="M1070 4324 c-520 -300 -953 -553 -962 -561 -17 -15 -18 -82 -18
-1139 l0 -1123 28 -19 c15 -10 443 -259 952 -553 649 -374 936 -535 961 -537
31 -3 94 30 530 282 l494 285 5 -247 c6 -283 12 -307 97 -381 84 -74 48 -72
904 -69 738 3 765 4 804 23 51 25 115 89 140 140 20 39 20 67 23 1134 l2 1094
-23 51 c-34 74 -70 111 -139 145 -61 31 -63 31 -223 31 l-161 0 -13 36 c-18
50 -64 98 -116 123 -40 19 -63 21 -210 21 l-165 0 0 343 c0 324 -1 345 -19
361 -36 32 -1905 1106 -1925 1106 -12 0 -446 -246 -966 -546z m1360 155 c203
-118 366 -217 362 -220 -6 -7 -1633 -948 -1690 -978 -21 -11 -55 6 -402 206
-209 120 -380 220 -380 223 0 12 1707 990 1722 986 10 -2 184 -100 388 -217z
m927 -536 c216 -124 393 -229 393 -233 0 -6 -1672 -974 -1703 -985 -10 -5
-155 74 -411 222 -218 125 -396 230 -396 233 1 7 1702 989 1714 990 6 0 187
-102 403 -227z m-2247 -868 c465 -268 848 -490 853 -494 4 -4 6 -453 5 -998
l-3 -991 -865 498 -865 498 -3 997 c-2 947 -1 995 15 986 10 -5 398 -228 863
-496z m2730 245 l0 -260 -30 0 c-69 0 -154 -60 -190 -135 l-22 -45 -157 0
c-156 0 -159 0 -219 -31 -65 -32 -99 -66 -135 -133 -22 -41 -22 -41 -27 -811
l-5 -770 -470 -272 -470 -272 -3 992 -2 992 20 14 c21 14 1703 990 1708 991 1
0 2 -117 2 -260z m419 -406 c108 -22 108 -176 0 -198 -18 -3 -114 -6 -214 -6
-211 0 -236 3 -270 38 -50 50 -21 152 48 165 36 7 402 8 436 1z m-645 -199 c9
-37 75 -105 121 -126 35 -17 70 -19 309 -19 252 0 272 1 312 21 49 23 101 78
116 122 l11 29 141 -4 c118 -3 146 -6 175 -23 44 -26 70 -62 81 -111 12 -51
12 -2017 0 -2068 -11 -49 -37 -85 -81 -111 -33 -19 -55 -20 -729 -23 -485 -2
-709 0 -740 8 -63 16 -107 61 -120 124 -7 35 -10 379 -8 1066 3 994 3 1016 23
1049 44 74 86 88 261 90 l122 1 6 -25z" />
        <path
            d="M3387 2322 c-15 -16 -17 -47 -17 -219 0 -239 -3 -233 108 -233 51 0
75 4 86 16 23 23 29 59 15 86 -7 13 15 -2 49 -34 52 -50 66 -58 98 -58 36 0
48 9 181 143 133 132 143 145 143 180 0 46 -28 77 -72 77 -26 0 -48 -17 -142
-110 l-112 -110 -34 35 c-48 48 -91 55 -124 22 -27 -27 -33 -65 -16 -96 8 -15
6 -17 -15 -13 -24 4 -25 6 -25 98 l0 94 91 0 c85 0 92 -2 111 -25 23 -29 71
-34 106 -9 19 13 22 24 22 78 0 97 2 96 -237 96 -181 0 -201 -2 -216 -18z" />
        <path
            d="M4155 2150 c-10 -11 -18 -34 -18 -50 0 -16 8 -39 18 -50 17 -19 30
-20 275 -20 288 0 290 0 290 72 0 67 -5 68 -292 68 -243 0 -256 -1 -273 -20z" />
        <path
            d="M3387 1682 c-15 -16 -17 -47 -17 -219 0 -181 2 -201 18 -216 16 -15
47 -17 219 -17 181 0 201 2 216 18 15 16 17 47 17 219 0 181 -2 201 -18 216
-16 15 -47 17 -219 17 -181 0 -201 -2 -216 -18z m313 -217 l0 -95 -95 0 -95 0
0 95 0 95 95 0 95 0 0 -95z" />
        <path
            d="M4155 1510 c-10 -11 -18 -34 -18 -50 0 -16 8 -39 18 -50 17 -19 30
-20 275 -20 288 0 290 0 290 72 0 67 -5 68 -292 68 -243 0 -256 -1 -273 -20z" />
        <path
            d="M3387 1042 c-15 -16 -17 -47 -17 -219 0 -239 -3 -233 108 -233 51 0
75 4 86 16 20 19 30 59 20 76 -4 7 20 -13 54 -44 89 -85 87 -86 264 89 135
135 148 150 148 183 0 41 -7 53 -38 69 -35 18 -68 6 -123 -46 l-49 -46 0 70
c0 105 5 103 -237 103 -181 0 -201 -2 -216 -18z m310 -139 c12 -36 36 -53 72
-53 l35 0 -39 -40 -38 -39 -39 34 c-70 64 -158 37 -146 -45 4 -24 1 -30 -14
-30 -16 0 -18 10 -18 95 l0 95 90 0 c77 0 92 -3 97 -17z" />
        <path
            d="M4155 870 c-10 -11 -18 -34 -18 -50 0 -16 8 -39 18 -50 17 -19 30
-20 275 -20 288 0 290 0 290 72 0 67 -5 68 -292 68 -243 0 -256 -1 -273 -20z" />
    </g>
</svg>