<?xml version="1.0" standalone="no"?>
<!DOCTYPE svg PUBLIC "-//W3C//DTD SVG 20010904//EN" "http://www.w3.org/TR/2001/REC-SVG-20010904/DTD/svg10.dtd">
<svg version="1.0" xmlns="http://www.w3.org/2000/svg"
    width="512.000000pt" height="512.000000pt" viewBox="0 0 512.000000 512.000000"
    preserveAspectRatio="xMidYMid meet">

    <g transform="translate(0.000000,512.000000) scale(0.100000,-0.100000)"
        stroke="none">
        <path
            d="M1510 4646 c-301 -70 -544 -257 -675 -521 -45 -91 -95 -259 -95 -321
l0 -34 -142 0 c-164 0 -242 -15 -330 -62 -118 -63 -223 -208 -247 -342 -7 -40
-11 -385 -11 -1065 0 -1086 0 -1083 53 -1188 87 -170 251 -273 438 -273 l78 0
12 -42 c34 -127 124 -235 248 -296 74 -37 77 -37 195 -37 115 0 124 1 189 32
120 57 224 179 256 301 l12 42 1187 0 1187 -1 37 -77 c131 -276 465 -354 704
-164 62 49 124 139 148 214 l17 56 62 7 c117 12 204 73 251 174 20 45 21 60
21 481 l0 435 -357 573 c-196 315 -368 588 -382 607 -14 18 -54 47 -87 64
l-62 31 -409 0 -408 0 0 33 c0 178 -116 365 -274 442 -92 45 -148 55 -317 55
l-139 0 0 34 c0 62 -50 230 -95 321 -120 241 -335 421 -601 501 -77 23 -110
27 -249 30 -105 2 -179 -1 -215 -10z m377 -162 c241 -53 451 -226 557 -456 56
-120 70 -187 70 -333 1 -147 -15 -223 -70 -343 -187 -409 -678 -589 -1083
-397 -229 109 -378 290 -448 546 -24 88 -24 299 1 389 118 432 542 691 973
594z m-1147 -905 c0 -50 30 -169 63 -249 127 -312 398 -534 722 -595 120 -23
317 -16 430 15 165 45 313 131 432 252 81 81 109 117 157 198 66 112 126 294
126 380 l0 32 163 -4 c144 -3 167 -6 208 -26 75 -37 125 -87 161 -160 l33 -67
3 -847 2 -848 -1535 0 -1535 0 0 820 c0 539 4 836 11 868 23 108 114 211 218
245 33 11 89 16 194 16 l147 1 0 -31z m3485 -521 c14 -13 57 -72 95 -133 l69
-110 -242 -5 c-224 -5 -246 -7 -292 -28 -59 -27 -118 -82 -148 -137 -21 -38
-22 -52 -22 -315 0 -263 1 -277 22 -315 31 -58 81 -105 143 -134 l55 -26 523
-3 522 -3 0 -358 c0 -356 0 -358 -23 -392 -26 -39 -79 -69 -123 -69 -28 0 -32
4 -48 58 -40 126 -120 218 -243 279 -76 38 -78 38 -197 38 -115 0 -124 -1
-189 -32 -129 -61 -244 -205 -263 -328 l-6 -45 -229 0 -229 0 0 1040 0 1040
399 0 400 0 26 -22z m458 -718 c104 -168 191 -311 194 -317 7 -18 -905 -18
-957 0 -19 7 -44 27 -57 46 -22 33 -23 41 -23 261 0 220 1 228 23 261 36 54
61 58 361 56 l269 -2 190 -305z m-1445 -1088 l2 -252 -876 2 -877 3 -12 40
c-59 197 -229 326 -435 328 -202 2 -378 -121 -440 -309 l-22 -66 -87 4 c-63 3
-97 10 -129 27 -66 34 -129 97 -159 160 -23 48 -27 72 -31 173 -2 65 -2 124 1
133 6 13 165 15 1534 13 l1528 -3 3 -253z m1184 -18 c25 -8 67 -33 92 -55 130
-115 137 -311 14 -436 -120 -123 -323 -117 -437 13 -124 141 -86 365 76 456
83 47 154 53 255 22z m-3255 -50 c104 -50 167 -152 167 -269 -1 -190 -167
-327 -354 -293 -234 42 -327 330 -162 501 92 96 229 120 349 61z" />
        <path
            d="M1285 4148 c-31 -16 -45 -39 -45 -72 0 -25 27 -57 177 -208 l177
-178 -177 -178 c-151 -152 -177 -183 -177 -208 0 -41 39 -77 82 -76 27 1 55
24 207 176 l176 176 176 -176 c152 -151 180 -175 207 -176 43 -1 82 35 82 76
0 25 -26 56 -177 208 l-177 178 177 178 c180 181 190 196 171 247 -7 18 -55
45 -80 45 -10 0 -97 -79 -194 -175 -97 -96 -180 -175 -185 -175 -5 0 -88 79
-185 175 -109 108 -184 175 -196 175 -10 0 -28 -6 -39 -12z" />
    </g>
</svg>