<?xml version="1.0" standalone="no"?>
<!DOCTYPE svg PUBLIC "-//W3C//DTD SVG 20010904//EN" "http://www.w3.org/TR/2001/REC-SVG-20010904/DTD/svg10.dtd">
<svg version="1.0" xmlns="http://www.w3.org/2000/svg"
    width="512.000000pt" height="512.000000pt" viewBox="0 0 512.000000 512.000000"
    preserveAspectRatio="xMidYMid meet">

    <g transform="translate(0.000000,512.000000) scale(0.100000,-0.100000)"
        stroke="none">
        <path
            d="M319 4936 c-152 -42 -276 -173 -308 -326 -9 -41 -11 -334 -9 -1145
l3 -1090 36 -75 c47 -97 112 -162 209 -209 l75 -36 1081 -3 1082 -2 -34 -106
c-150 -472 -27 -998 315 -1351 195 -201 432 -333 711 -394 138 -31 398 -33
530 -5 316 68 560 208 768 441 206 231 324 526 339 845 25 531 -272 1034 -752
1275 -57 28 -140 62 -184 76 l-80 24 -3 875 -3 875 -23 57 c-50 124 -137 214
-249 259 l-58 24 -1700 2 c-1353 1 -1709 -1 -1746 -11z m3433 -172 c64 -21
121 -74 149 -136 l24 -53 0 -495 0 -495 -1875 0 -1875 0 0 505 c0 473 1 507
19 540 36 68 97 120 166 141 14 4 772 8 1686 8 1477 1 1665 -1 1706 -15z m176
-1611 l-3 -258 -22 1 c-13 0 -858 1 -1878 2 l-1855 2 0 255 0 255 1880 0 1880
0 -2 -257z m-849 -427 c-2 -2 -38 -27 -79 -54 -152 -102 -293 -244 -382 -384
l-43 -67 -1100 -1 c-1085 0 -1101 1 -1145 21 -55 25 -105 71 -133 124 -19 35
-22 59 -25 203 l-4 162 1458 0 c801 0 1455 -2 1453 -4z m867 -11 c535 -87 942
-523 996 -1067 35 -350 -92 -701 -346 -954 -408 -406 -1028 -466 -1509 -147
-95 63 -230 193 -299 290 -303 421 -302 992 3 1404 269 364 712 546 1155 474z" />
        <path
            d="M575 4496 c-60 -28 -97 -66 -124 -126 -18 -39 -21 -66 -21 -191 0
-137 1 -148 26 -198 32 -64 98 -116 169 -132 31 -7 128 -10 260 -7 193 3 213
5 250 25 47 25 96 74 121 123 27 50 33 288 10 357 -22 66 -66 116 -128 147
-51 26 -54 26 -282 26 -222 0 -233 -1 -281 -24z m490 -152 c33 -13 45 -59 45
-169 0 -104 -1 -107 -29 -136 l-29 -29 -192 0 c-261 0 -259 -2 -260 173 0 112
1 119 25 142 24 25 25 25 224 25 110 0 207 -3 216 -6z" />
        <path
            d="M1755 4428 c-52 -28 -62 -92 -20 -133 l24 -25 886 0 886 0 24 25 c25
24 32 65 19 100 -18 45 -10 45 -931 45 -609 -1 -874 -4 -888 -12z" />
        <path
            d="M1770 4093 c-58 -22 -77 -88 -39 -137 l20 -26 465 0 465 0 24 25 c32
31 32 75 1 112 l-24 28 -449 2 c-246 1 -455 -1 -463 -4z" />
        <path
            d="M3916 1555 c-318 -272 -581 -495 -585 -495 -3 0 -74 68 -156 150
-130 131 -154 150 -182 150 -17 0 -39 -3 -48 -6 -24 -10 -47 -62 -40 -93 7
-33 357 -385 399 -401 21 -8 35 -7 55 3 35 17 1213 1027 1235 1058 24 35 20
67 -13 100 -59 58 -34 75 -665 -466z" />
    </g>
</svg>