<?xml version="1.0" standalone="no"?>
<!DOCTYPE svg PUBLIC "-//W3C//DTD SVG 20010904//EN" "http://www.w3.org/TR/2001/REC-SVG-20010904/DTD/svg10.dtd">
<svg version="1.0" xmlns="http://www.w3.org/2000/svg"
    width="512.000000pt" height="512.000000pt" viewBox="0 0 512.000000 512.000000"
    preserveAspectRatio="xMidYMid meet">

    <g transform="translate(0.000000,512.000000) scale(0.100000,-0.100000)"
        stroke="none">
        <path
            d="M783 5029 c-320 -38 -591 -278 -674 -594 -27 -103 -29 -269 -5 -375
25 -109 103 -262 170 -337 31 -33 56 -66 56 -71 0 -5 -16 -45 -36 -88 -84
-185 -157 -441 -190 -669 -24 -160 -24 -514 -1 -668 103 -675 440 -1250 966
-1645 339 -256 716 -412 1151 -479 162 -25 519 -24 685 1 418 63 811 226 1141
472 49 36 93 70 98 75 5 4 -14 34 -44 69 l-52 60 -62 -49 c-604 -479 -1444
-619 -2181 -363 -342 118 -632 300 -885 552 -580 580 -809 1420 -605 2215 45
175 135 415 155 415 5 0 35 -13 68 -30 109 -54 202 -74 342 -74 147 -1 223 16
347 75 393 188 564 675 373 1061 -17 33 -30 63 -30 68 0 9 87 48 200 90 116
43 322 95 460 116 159 25 500 25 659 1 709 -110 1295 -501 1661 -1107 154
-255 257 -544 307 -865 24 -153 24 -496 -1 -653 -49 -314 -150 -597 -308 -864
l-43 -73 -2 55 c-2 30 -5 83 -9 118 l-6 62 -73 0 c-41 0 -76 -3 -78 -7 -6 -10
11 -469 18 -500 7 -30 44 -63 70 -63 12 0 125 42 251 94 257 105 243 92 200
189 l-24 56 -79 -33 c-135 -57 -131 -57 -94 5 61 104 154 295 198 409 54 139
114 371 139 535 25 168 25 522 0 690 -64 425 -227 815 -485 1160 -96 129 -337
370 -466 466 -359 269 -747 428 -1195 491 -141 19 -506 17 -650 -5 -226 -35
-452 -99 -645 -183 -55 -24 -103 -44 -108 -44 -5 0 -37 25 -70 56 -74 67 -230
146 -332 167 -97 21 -197 27 -282 16z m231 -164 c367 -78 594 -474 473 -824
-36 -102 -81 -174 -157 -251 -254 -253 -647 -253 -901 1 -251 249 -251 648 0
900 156 155 371 219 585 174z" />
        <path
            d="M597 4523 l-57 -58 112 -112 113 -113 -113 -113 -112 -112 57 -58 58
-57 112 112 113 113 113 -113 112 -112 58 57 57 58 -112 112 -113 113 113 113
112 112 -57 58 -58 57 -112 -112 -113 -113 -113 113 -112 112 -58 -57z" />
        <path
            d="M2000 3480 l0 -40 -136 0 c-78 0 -154 -5 -178 -12 -55 -16 -138 -99
-154 -154 -17 -59 -17 -1609 0 -1668 16 -55 99 -138 154 -154 31 -9 224 -12
755 -12 l714 0 222 223 223 222 0 674 c0 492 -3 684 -12 713 -6 22 -31 62 -55
88 -57 63 -106 80 -235 80 l-98 0 0 -80 0 -80 95 0 c88 0 98 -2 120 -25 23
-22 25 -32 25 -120 l0 -95 -880 0 -880 0 0 95 c0 88 2 98 25 120 23 24 29 25
160 25 l135 0 0 -40 0 -40 80 0 80 0 0 160 0 160 -80 0 -80 0 0 -40z m1440
-1040 l0 -440 -175 0 c-238 0 -225 13 -225 -225 l0 -175 -655 0 -656 0 -24 25
-25 24 0 616 0 615 880 0 880 0 0 -440z m-120 -603 c0 -1 -27 -29 -60 -62
l-60 -59 0 62 0 62 60 0 c33 0 60 -1 60 -3z" />
        <path d="M2280 2560 l0 -80 80 0 80 0 0 80 0 80 -80 0 -80 0 0 -80z" />
        <path d="M2680 2560 l0 -80 80 0 80 0 0 80 0 80 -80 0 -80 0 0 -80z" />
        <path d="M3080 2560 l0 -80 80 0 80 0 0 80 0 80 -80 0 -80 0 0 -80z" />
        <path d="M1880 2240 l0 -80 80 0 80 0 0 80 0 80 -80 0 -80 0 0 -80z" />
        <path d="M2280 2240 l0 -80 80 0 80 0 0 80 0 80 -80 0 -80 0 0 -80z" />
        <path d="M2680 2240 l0 -80 80 0 80 0 0 80 0 80 -80 0 -80 0 0 -80z" />
        <path d="M3080 2240 l0 -80 80 0 80 0 0 80 0 80 -80 0 -80 0 0 -80z" />
        <path d="M1880 1920 l0 -80 80 0 80 0 0 80 0 80 -80 0 -80 0 0 -80z" />
        <path d="M2280 1920 l0 -80 80 0 80 0 0 80 0 80 -80 0 -80 0 0 -80z" />
        <path d="M2680 1920 l0 -80 80 0 80 0 0 80 0 80 -80 0 -80 0 0 -80z" />
        <path
            d="M2880 3480 l0 -40 -280 0 -280 0 0 -80 0 -80 280 0 280 0 0 -40 0
-40 80 0 80 0 0 160 0 160 -80 0 -80 0 0 -40z" />
    </g>
</svg>