<?xml version="1.0" standalone="no"?>
<!DOCTYPE svg PUBLIC "-//W3C//DTD SVG 20010904//EN" "http://www.w3.org/TR/2001/REC-SVG-20010904/DTD/svg10.dtd">
<svg version="1.0" xmlns="http://www.w3.org/2000/svg"
    width="512.000000pt" height="512.000000pt" viewBox="0 0 512.000000 512.000000"
    preserveAspectRatio="xMidYMid meet">

    <g transform="translate(0.000000,512.000000) scale(0.100000,-0.100000)"
        stroke="none">
        <path
            d="M521 5044 c-223 -48 -398 -224 -446 -449 -22 -105 -22 -3105 0 -3210
45 -213 209 -385 420 -440 52 -13 195 -15 1110 -15 l1052 0 36 -93 c217 -548
793 -863 1375 -752 437 84 807 419 936 847 40 133 50 204 50 358 0 330 -117
617 -348 855 l-76 78 0 822 c0 904 2 872 -63 1005 -43 87 -159 203 -247 247
-85 43 -168 63 -256 63 l-71 0 -6 108 c-4 59 -14 132 -22 162 -55 206 -230
371 -440 415 -102 21 -2906 21 -3004 -1z m2959 -154 c130 -25 245 -112 303
-229 30 -61 32 -74 36 -183 l3 -118 -1633 0 -1633 0 -23 -22 c-29 -27 -30 -77
-4 -109 l19 -24 1804 -5 c1652 -5 1806 -6 1844 -22 88 -35 175 -109 222 -188
52 -90 52 -85 52 -898 0 -414 -3 -752 -7 -750 -5 2 -46 22 -93 45 -172 85
-338 123 -536 123 -472 0 -889 -259 -1102 -685 -90 -180 -126 -356 -120 -582
l4 -153 -1021 0 c-904 0 -1028 2 -1076 16 -146 43 -260 170 -289 324 -6 30
-10 225 -10 452 l0 398 52 -41 c65 -51 151 -95 225 -114 87 -23 816 -22 894 1
215 64 359 255 359 477 0 201 -146 397 -345 464 -42 14 -113 18 -461 22 l-410
6 -76 38 c-124 61 -207 171 -228 303 -14 83 -13 1044 1 1119 29 160 154 291
314 331 65 16 2852 20 2935 4z m-3120 -1888 c120 -66 115 -66 565 -72 399 -5
411 -6 459 -28 80 -37 132 -85 168 -160 29 -59 33 -76 33 -147 0 -67 -5 -89
-28 -137 -35 -72 -110 -140 -184 -168 -54 -20 -71 -21 -448 -18 l-391 3 -76
38 c-122 60 -203 165 -228 297 -5 29 -10 152 -10 273 l0 219 43 -34 c23 -19
67 -49 97 -66z m3740 -685 c577 -152 920 -752 755 -1320 -51 -178 -128 -309
-262 -448 -320 -332 -801 -419 -1218 -220 -285 136 -492 387 -572 691 -31 118
-41 300 -23 421 65 448 414 810 863 895 115 22 339 12 457 -19z" />
        <path
            d="M3804 2180 c-54 -21 -54 -25 -54 -432 l0 -378 -231 0 -231 0 -29 -29
c-36 -36 -37 -73 -4 -106 l24 -25 294 0 294 0 21 23 c22 23 22 25 22 459 0
240 -3 444 -6 453 -6 15 -54 46 -71 44 -4 0 -18 -4 -29 -9z" />
    </g>
</svg>