<?xml version="1.0" standalone="no"?>
<!DOCTYPE svg PUBLIC "-//W3C//DTD SVG 20010904//EN"
 "http://www.w3.org/TR/2001/REC-SVG-20010904/DTD/svg10.dtd">
<svg version="1.0" xmlns="http://www.w3.org/2000/svg"
 width="512.000000pt" height="512.000000pt" viewBox="0 0 512.000000 512.000000"
 preserveAspectRatio="xMidYMid meet">

<g transform="translate(0.000000,512.000000) scale(0.100000,-0.100000)"
fill="red" stroke="none">
<path d="M505 4615 l-25 -24 0 -1791 0 -1791 25 -24 24 -25 1071 0 1071 0 24
25 c25 24 25 25 25 225 l0 202 -29 29 c-37 37 -65 37 -102 0 l-29 -29 0 -146
0 -146 -960 0 -960 0 0 1680 0 1680 960 0 960 0 0 -95 c0 -88 2 -98 25 -120
15 -16 36 -25 55 -25 19 0 40 9 55 25 24 23 25 28 25 175 0 147 -1 152 -25
175 l-24 25 -1071 0 -1071 0 -24 -25z"/>
<path d="M4302 4587 c-31 -33 -28 -63 18 -159 95 -199 93 -419 -5 -627 -41
-86 -43 -101 -12 -137 29 -33 77 -37 108 -8 31 27 75 120 106 221 24 79 27
103 27 243 0 140 -3 164 -27 243 -30 97 -77 197 -107 227 -28 28 -81 26 -108
-3z"/>
<path d="M4023 4445 c-37 -26 -38 -65 -2 -134 63 -125 63 -257 0 -381 -35 -69
-38 -99 -13 -129 27 -33 72 -37 106 -10 42 33 95 154 108 249 20 132 -14 284
-82 379 -25 34 -36 41 -63 41 -18 0 -42 -7 -54 -15z"/>
<path d="M3725 4295 c-32 -31 -32 -74 0 -121 31 -46 31 -59 0 -109 -39 -64
-29 -112 28 -134 105 -40 196 168 130 295 -27 52 -77 94 -109 94 -14 0 -36
-11 -49 -25z"/>
<path d="M3041 4278 c-24 -4 -59 -17 -78 -28 -55 -32 -970 -778 -1002 -817
-51 -62 -66 -165 -35 -242 8 -21 190 -254 404 -516 l388 -478 -49 -49 c-102
-102 -129 -219 -76 -323 41 -81 123 -145 185 -145 17 0 20 -9 24 -58 8 -100
60 -175 153 -218 57 -27 165 -32 225 -11 l35 13 -17 -65 c-33 -128 -22 -201
54 -365 56 -123 58 -150 13 -217 -14 -21 -25 -49 -25 -62 0 -55 110 -154 237
-213 347 -162 849 -71 1026 187 l38 55 -12 106 c-22 191 1 285 202 826 61 161
117 320 125 353 26 102 -3 227 -73 308 -20 23 -88 78 -152 120 l-116 78 0 60
c0 36 -7 75 -19 100 -10 22 -293 379 -630 794 -650 800 -644 795 -741 809 -22
3 -60 2 -84 -2z m136 -215 c190 -223 1173 -1445 1178 -1465 13 -51 -4 -68
-331 -334 -85 -69 -157 -125 -158 -123 -2 2 -18 49 -36 104 -65 197 -129 298
-242 378 -88 63 -158 89 -238 90 -174 0 -270 -126 -229 -302 5 -24 32 -101 60
-173 65 -167 98 -292 105 -398 l6 -85 -25 25 c-21 21 -1024 1253 -1155 1418
-54 69 -56 108 -9 152 17 17 237 197 487 400 434 352 457 369 497 370 38 0 45
-4 90 -57z m260 -1534 c65 -31 146 -110 180 -176 17 -32 59 -146 93 -253 83
-261 114 -322 205 -409 86 -82 214 -151 278 -151 52 0 87 30 87 74 -1 44 -20
63 -83 85 -93 32 -94 33 -50 66 60 46 143 126 174 169 36 49 37 89 3 123 -21
21 -32 24 -62 20 -31 -6 -43 -1 -84 31 l-49 37 24 20 c210 171 268 216 275
213 37 -16 213 -142 234 -167 33 -38 52 -102 45 -151 -2 -19 -56 -174 -120
-345 -203 -547 -220 -612 -216 -829 l2 -129 -38 -38 c-49 -50 -171 -112 -271
-140 -70 -19 -95 -21 -214 -16 -76 3 -161 13 -195 22 -67 18 -167 66 -203 95
-24 19 -24 21 -8 67 9 25 16 73 16 105 0 49 -7 72 -45 149 -55 109 -79 196
-71 254 4 23 22 84 40 136 102 286 85 554 -58 918 -62 157 -68 201 -34 225 31
22 94 20 145 -5z m-538 -556 c39 -48 71 -91 71 -95 0 -4 -31 -17 -70 -29 -58
-17 -75 -19 -105 -9 -81 27 -89 115 -17 193 14 15 31 27 38 27 7 0 44 -39 83
-87z m1169 23 l52 -45 -42 -34 c-24 -19 -55 -42 -69 -51 -25 -16 -27 -16 -42
7 -8 13 -23 41 -32 63 l-16 38 38 33 c21 18 43 32 48 32 6 0 34 -19 63 -43z
m-935 -307 c27 -33 60 -65 73 -71 13 -6 24 -15 24 -19 0 -4 -24 -19 -54 -33
-58 -27 -132 -34 -167 -16 -38 21 -63 103 -41 138 9 13 90 59 107 60 6 0 32
-26 58 -59z"/>
<path d="M2747 3534 c-172 -140 -190 -162 -169 -209 18 -40 314 -396 338 -407
12 -6 34 -8 48 -4 14 3 98 66 188 139 219 178 218 151 17 397 -82 102 -159
193 -171 203 -45 38 -72 26 -251 -119z m288 -175 c53 -66 95 -122 93 -123 -1
-1 -38 -30 -80 -64 -42 -34 -81 -62 -86 -62 -12 0 -187 216 -187 230 0 7 149
136 161 140 1 0 45 -54 99 -121z"/>
<path d="M865 4255 l-25 -24 0 -591 0 -591 25 -24 24 -25 431 0 431 0 24 25
c33 32 33 78 0 110 l-24 25 -376 0 -375 0 0 480 0 480 600 0 600 0 0 -35 c0
-75 84 -112 135 -60 23 22 25 32 25 115 0 83 -2 93 -25 115 l-24 25 -711 0
-711 0 -24 -25z"/>
<path d="M865 2815 c-16 -15 -25 -36 -25 -55 0 -19 9 -40 25 -55 23 -24 28
-25 175 -25 147 0 152 1 175 25 16 15 25 36 25 55 0 19 -9 40 -25 55 -23 24
-28 25 -175 25 -147 0 -152 -1 -175 -25z"/>
<path d="M1425 2815 c-16 -15 -25 -36 -25 -55 0 -19 9 -40 25 -55 23 -24 28
-25 175 -25 147 0 152 1 175 25 16 15 25 36 25 55 0 19 -9 40 -25 55 -23 24
-28 25 -175 25 -147 0 -152 -1 -175 -25z"/>
<path d="M865 2495 c-16 -15 -25 -36 -25 -55 0 -19 9 -40 25 -55 23 -24 28
-25 175 -25 147 0 152 1 175 25 16 15 25 36 25 55 0 19 -9 40 -25 55 -23 24
-28 25 -175 25 -147 0 -152 -1 -175 -25z"/>
<path d="M1425 2495 c-16 -15 -25 -36 -25 -55 0 -19 9 -40 25 -55 23 -24 28
-25 175 -25 147 0 152 1 175 25 16 15 25 36 25 55 0 19 -9 40 -25 55 -23 24
-28 25 -175 25 -147 0 -152 -1 -175 -25z"/>
<path d="M1985 2495 c-16 -15 -25 -36 -25 -55 0 -19 9 -40 25 -55 23 -24 29
-25 155 -25 126 0 132 1 155 25 16 15 25 36 25 55 0 19 -9 40 -25 55 -23 24
-29 25 -155 25 -126 0 -132 -1 -155 -25z"/>
<path d="M865 2175 c-16 -15 -25 -36 -25 -55 0 -19 9 -40 25 -55 23 -24 28
-25 175 -25 147 0 152 1 175 25 16 15 25 36 25 55 0 19 -9 40 -25 55 -23 24
-28 25 -175 25 -147 0 -152 -1 -175 -25z"/>
<path d="M1425 2175 c-16 -15 -25 -36 -25 -55 0 -19 9 -40 25 -55 23 -24 28
-25 175 -25 147 0 152 1 175 25 16 15 25 36 25 55 0 19 -9 40 -25 55 -23 24
-28 25 -175 25 -147 0 -152 -1 -175 -25z"/>
<path d="M1985 2175 c-16 -15 -25 -36 -25 -55 0 -19 9 -40 25 -55 23 -24 29
-25 155 -25 126 0 132 1 155 25 16 15 25 36 25 55 0 19 -9 40 -25 55 -23 24
-29 25 -155 25 -126 0 -132 -1 -155 -25z"/>
<path d="M865 1855 c-16 -15 -25 -36 -25 -55 0 -19 9 -40 25 -55 23 -24 28
-25 175 -25 147 0 152 1 175 25 16 15 25 36 25 55 0 19 -9 40 -25 55 -23 24
-28 25 -175 25 -147 0 -152 -1 -175 -25z"/>
<path d="M1425 1855 c-16 -15 -25 -36 -25 -55 0 -19 9 -40 25 -55 23 -24 28
-25 175 -25 147 0 152 1 175 25 16 15 25 36 25 55 0 19 -9 40 -25 55 -23 24
-28 25 -175 25 -147 0 -152 -1 -175 -25z"/>
<path d="M1985 1855 c-16 -15 -25 -36 -25 -55 0 -19 9 -40 25 -55 23 -24 29
-25 155 -25 126 0 132 1 155 25 16 15 25 36 25 55 0 19 -9 40 -25 55 -23 24
-29 25 -155 25 -126 0 -132 -1 -155 -25z"/>
<path d="M1425 1535 c-16 -15 -25 -36 -25 -55 0 -19 9 -40 25 -55 23 -24 28
-25 175 -25 147 0 152 1 175 25 16 15 25 36 25 55 0 19 -9 40 -25 55 -23 24
-28 25 -175 25 -147 0 -152 -1 -175 -25z"/>
</g>
</svg>
