<?xml version="1.0" standalone="no"?>
<!DOCTYPE svg PUBLIC "-//W3C//DTD SVG 20010904//EN"
 "http://www.w3.org/TR/2001/REC-SVG-20010904/DTD/svg10.dtd">
<svg version="1.0" xmlns="http://www.w3.org/2000/svg"
 width="512.000000pt" height="512.000000pt" viewBox="0 0 512.000000 512.000000"
 preserveAspectRatio="xMidYMid meet">

<g transform="translate(0.000000,512.000000) scale(0.100000,-0.100000)"
fill="red" stroke="none">
<path d="M876 4685 c-48 -17 -104 -69 -123 -114 -13 -30 -333 -2258 -333
-2315 0 -73 62 -165 130 -194 19 -8 105 -24 190 -36 l155 -21 5 -315 c5 -332
7 -341 55 -398 60 -71 1 -66 908 -72 l819 -5 32 -95 c111 -331 374 -577 716
-668 131 -34 352 -37 480 -5 381 96 660 373 761 759 l24 89 0 1220 0 1220 -23
43 c-27 51 -92 100 -143 108 l-38 6 2 92 c2 87 0 95 -28 141 -20 32 -46 57
-80 75 -46 26 -95 34 -630 109 -319 45 -1077 151 -1685 236 -608 85 -1116 155
-1130 155 -14 -1 -42 -7 -64 -15z m679 -190 c2463 -344 2758 -387 2779 -400
36 -24 47 -59 40 -131 l-7 -64 -1629 0 c-1204 0 -1641 -3 -1675 -12 -60 -15
-137 -87 -152 -143 -7 -27 -11 -289 -11 -831 l0 -790 -137 18 c-76 10 -152 24
-169 32 -67 30 -72 -36 100 1194 87 614 160 1126 163 1137 9 34 50 70 83 74 3
1 280 -37 615 -84z m2946 -725 c68 -19 74 -34 77 -201 l3 -149 -1780 0 -1781
0 0 144 c0 130 2 146 21 170 11 14 35 30 52 35 45 13 3361 14 3408 1z m79
-570 l0 -100 -1780 0 -1780 0 0 100 0 100 1780 0 1780 0 0 -100z m0 -747 l0
-527 -43 66 c-142 216 -353 368 -602 435 -88 23 -119 26 -255 26 -136 0 -167
-3 -255 -26 -285 -76 -526 -272 -655 -531 -68 -137 -100 -266 -107 -428 l-6
-128 -788 0 -788 0 -28 24 -28 24 -3 796 -2 796 1780 0 1780 0 0 -527z m-678
-142 c324 -84 573 -339 655 -668 23 -93 23 -313 0 -406 -83 -335 -339 -591
-674 -674 -93 -23 -313 -23 -406 0 -395 98 -671 429 -694 832 -25 445 292 846
734 930 103 19 282 13 385 -14z"/>
<path d="M3892 2028 c-7 -7 -12 -26 -12 -42 0 -24 14 -45 67 -98 l67 -68 -417
0 c-404 0 -418 -1 -437 -20 -11 -11 -20 -29 -20 -40 0 -11 9 -29 20 -40 19
-19 33 -20 437 -20 l416 0 -71 -74 c-40 -41 -72 -81 -72 -90 0 -22 44 -66 67
-66 28 0 283 261 283 290 0 17 -36 60 -127 152 -108 109 -132 128 -158 128
-17 0 -36 -5 -43 -12z"/>
<path d="M3267 1272 c-91 -92 -127 -135 -127 -152 0 -29 255 -290 283 -290 10
0 29 11 43 25 34 35 26 55 -54 138 l-66 67 417 0 c404 0 418 1 437 20 11 11
20 29 20 40 0 11 -9 29 -20 40 -19 19 -33 20 -437 20 l-417 0 67 68 c53 53 67
74 67 98 0 38 -16 54 -55 54 -26 0 -50 -19 -158 -128z"/>
</g>
</svg>
