<?xml version="1.0" standalone="no"?>
<!DOCTYPE svg PUBLIC "-//W3C//DTD SVG 20010904//EN" "http://www.w3.org/TR/2001/REC-SVG-20010904/DTD/svg10.dtd">
<svg version="1.0" xmlns="http://www.w3.org/2000/svg"
    width="512.000000pt" height="512.000000pt" viewBox="0 0 512.000000 512.000000"
    preserveAspectRatio="xMidYMid meet">

    <g transform="translate(0.000000,512.000000) scale(0.100000,-0.100000)"
        stroke="none">
        <path
            d="M2380 4794 c-539 -49 -1022 -274 -1401 -653 -346 -347 -555 -760
-636 -1256 -24 -153 -24 -497 0 -650 24 -148 70 -327 114 -444 257 -690 831
-1212 1533 -1395 221 -57 327 -70 570 -70 236 0 343 12 554 65 778 195 1407
820 1610 1599 57 221 70 327 70 570 0 243 -13 349 -70 570 -223 858 -945 1507
-1829 1645 -97 15 -425 27 -515 19z m465 -160 c837 -111 1541 -741 1745 -1563
44 -177 61 -313 61 -501 0 -254 -28 -439 -103 -668 -45 -138 -150 -356 -228
-477 -334 -512 -866 -851 -1474 -940 -144 -21 -428 -21 -572 0 -236 35 -413
90 -629 195 -631 307 -1058 894 -1160 1594 -21 144 -21 428 0 572 100 687 517
1270 1130 1581 385 195 796 264 1230 207z" />
        <path
            d="M1902 3777 c-53 -20 -103 -66 -128 -121 l-24 -51 0 -1039 c0 -760 3
-1049 12 -1077 15 -52 68 -113 121 -138 51 -25 132 -28 181 -7 53 22 1789
1026 1813 1049 83 76 84 260 2 333 -13 12 -136 87 -274 166 -874 506 -1513
872 -1541 884 -40 17 -117 17 -162 1z m978 -631 c476 -275 877 -510 893 -524
35 -33 37 -89 5 -120 -24 -22 -1724 -1007 -1768 -1024 -31 -12 -64 -3 -90 24
-20 22 -20 31 -20 1058 0 814 3 1040 13 1052 19 25 50 39 77 35 14 -2 415
-227 890 -501z" />
    </g>
</svg>