<?xml version="1.0" standalone="no"?>
<!DOCTYPE svg PUBLIC "-//W3C//DTD SVG 20010904//EN" "http://www.w3.org/TR/2001/REC-SVG-20010904/DTD/svg10.dtd">
<svg version="1.0" xmlns="http://www.w3.org/2000/svg"
    width="512.000000pt" height="512.000000pt" viewBox="0 0 512.000000 512.000000"
    preserveAspectRatio="xMidYMid meet">

    <g transform="translate(0.000000,512.000000) scale(0.100000,-0.100000)"
        stroke="none">
        <path
            d="M3018 5025 c-25 -8 -86 -44 -135 -80 -124 -92 -148 -102 -282 -110
-133 -8 -182 -21 -243 -63 -70 -48 -103 -110 -140 -258 l-31 -129 -109 -111
c-129 -133 -151 -175 -151 -281 0 -67 3 -79 63 -203 l63 -131 -9 -97 c-16
-177 -12 -240 18 -302 35 -71 77 -111 158 -151 36 -17 66 -33 68 -34 2 -1 -65
-148 -148 -326 -82 -177 -150 -334 -150 -348 0 -14 6 -34 14 -43 27 -36 55
-37 230 -6 93 16 172 26 177 21 4 -4 44 -71 89 -148 44 -77 88 -146 97 -152
20 -15 67 -17 92 -4 10 6 86 157 171 340 152 327 154 331 189 341 53 15 98 11
171 -13 l65 -22 108 -250 c59 -137 116 -259 127 -269 23 -23 75 -24 100 -1 10
9 56 78 102 152 45 75 88 138 95 140 7 3 79 -9 160 -26 82 -17 163 -31 181
-31 41 0 72 30 72 71 0 17 -52 151 -115 300 -64 148 -118 276 -121 283 -4 9 6
21 26 31 85 44 154 140 167 231 3 26 0 104 -7 174 l-13 128 64 133 c60 127 63
138 64 209 0 110 -28 164 -145 276 -51 49 -98 101 -106 116 -8 15 -26 76 -40
135 -56 233 -137 303 -369 317 -147 10 -167 16 -260 87 -115 87 -167 111 -245
115 -39 2 -83 -2 -112 -11z m238 -216 c49 -36 101 -72 116 -82 42 -26 131 -45
249 -52 165 -10 184 -28 231 -211 16 -64 38 -135 49 -157 12 -22 65 -83 119
-136 99 -97 120 -128 120 -180 0 -15 -27 -82 -60 -150 -32 -68 -62 -144 -66
-169 -4 -24 -1 -98 6 -162 7 -65 10 -134 6 -153 -10 -54 -51 -87 -173 -140
-61 -26 -129 -64 -152 -83 -22 -20 -71 -80 -107 -135 -108 -162 -122 -167
-309 -115 -71 20 -150 36 -176 36 -26 0 -101 -16 -168 -35 -66 -19 -128 -35
-138 -35 -10 0 -37 9 -60 20 -35 15 -53 35 -99 105 -98 153 -139 187 -314 260
-72 30 -104 55 -127 100 -14 26 -14 45 -3 156 17 168 11 206 -50 336 -67 140
-72 158 -59 207 9 32 31 60 105 130 111 104 140 156 180 319 42 169 56 180
271 196 144 12 174 23 289 109 115 85 131 93 185 89 39 -3 62 -15 135 -68z
m675 -1987 c69 -160 84 -202 71 -202 -10 0 -55 9 -102 20 -99 23 -150 25 -172
8 -9 -7 -44 -58 -78 -113 -34 -55 -63 -101 -65 -103 -2 -2 -90 197 -110 251
-4 9 6 17 32 25 78 23 129 66 194 164 68 102 118 160 133 155 6 -2 50 -94 97
-205z m-1418 63 c78 -120 150 -174 255 -191 26 -4 41 -11 39 -18 -3 -6 -42
-91 -87 -189 l-83 -178 -65 111 c-40 68 -74 116 -89 123 -18 8 -52 5 -145 -11
-67 -12 -123 -20 -125 -18 -2 2 47 112 108 244 128 275 105 260 192 127z" />
        <path
            d="M2970 4586 c-349 -74 -590 -369 -590 -722 0 -295 184 -566 461 -679
404 -164 870 74 979 501 27 104 27 253 0 360 -63 251 -249 444 -505 523 -90
28 -254 36 -345 17z m261 -160 c204 -44 380 -212 434 -416 8 -30 15 -96 15
-147 0 -254 -159 -468 -405 -545 -97 -31 -243 -30 -335 1 -95 33 -167 77 -235
145 -250 252 -209 678 85 875 135 90 286 119 441 87z" />
        <path
            d="M3198 3959 l-231 -210 -86 85 c-76 76 -91 86 -122 86 -45 0 -79 -34
-79 -78 0 -26 18 -49 125 -156 136 -138 155 -147 211 -104 40 31 452 403 492
444 58 60 31 144 -46 144 -28 0 -64 -29 -264 -211z" />
        <path
            d="M1837 2034 c-32 -7 -90 -29 -130 -47 -58 -27 -613 -342 -693 -394
-20 -13 -23 -10 -60 53 -54 93 -95 119 -188 119 -70 0 -72 -1 -206 -78 -74
-43 -149 -93 -166 -113 -40 -43 -57 -109 -45 -163 11 -50 672 -1224 714 -1268
17 -18 50 -40 74 -49 68 -26 116 -15 245 57 159 88 195 115 217 157 42 82 36
135 -24 242 -19 34 -35 63 -35 65 0 2 28 19 63 38 l63 35 519 -139 c286 -77
553 -145 593 -151 88 -14 208 -1 297 34 64 24 1534 925 1599 979 23 19 50 58
68 96 76 161 15 351 -136 431 -46 25 -61 27 -161 27 -90 0 -123 -4 -180 -24
-102 -35 -145 -58 -617 -332 -236 -138 -445 -257 -465 -265 -33 -14 -35 -14
-29 2 51 133 20 276 -77 359 -55 47 -94 64 -216 91 -121 27 -327 91 -606 188
-178 62 -194 66 -275 65 -47 0 -111 -7 -143 -15z m338 -190 c280 -99 515 -173
630 -199 127 -28 157 -42 193 -95 40 -60 21 -153 -40 -190 -62 -37 -126 -28
-491 75 -86 25 -166 45 -178 45 -30 0 -69 -44 -69 -78 0 -47 28 -71 105 -93
430 -121 569 -150 711 -150 150 1 191 18 675 301 571 333 607 350 732 350 113
0 170 -54 170 -160 0 -37 -6 -67 -18 -88 -15 -25 -187 -135 -770 -494 -412
-254 -777 -473 -810 -487 -48 -20 -77 -25 -150 -25 -79 -1 -116 6 -305 57
-721 195 -881 237 -909 237 -18 0 -61 -18 -107 -45 -41 -25 -79 -45 -82 -45
-7 0 -380 656 -384 675 -2 10 473 291 637 377 181 95 266 101 460 32z m-1043
-837 c266 -469 337 -601 329 -615 -14 -26 -247 -155 -268 -148 -11 4 -152 244
-355 603 -295 521 -336 599 -325 616 19 29 229 147 257 144 21 -2 67 -79 362
-600z" />
        <path
            d="M693 1450 c-73 -30 -44 -150 37 -150 60 0 102 76 67 121 -15 19 -51
39 -69 38 -7 0 -23 -4 -35 -9z" />
    </g>
</svg>