<?xml version="1.0" standalone="no"?>
<!DOCTYPE svg PUBLIC "-//W3C//DTD SVG 20010904//EN" "http://www.w3.org/TR/2001/REC-SVG-20010904/DTD/svg10.dtd">
<svg version="1.0" xmlns="http://www.w3.org/2000/svg"
    width="512.000000pt" height="512.000000pt" viewBox="0 0 512.000000 512.000000"
    preserveAspectRatio="xMidYMid meet">

    <g transform="translate(0.000000,512.000000) scale(0.100000,-0.100000)"
        stroke="none">
        <path
            d="M1703 4311 c-12 -6 -204 -131 -427 -280 -223 -149 -408 -271 -411
-271 -3 0 -35 60 -71 133 -36 72 -76 143 -88 155 -96 106 -276 37 -276 -106 0
-55 223 -506 269 -545 36 -30 86 -42 134 -33 41 8 1034 671 1062 709 15 21 20
44 20 87 0 63 -16 95 -67 133 -30 22 -111 32 -145 18z" />
        <path
            d="M2495 4146 c-67 -29 -105 -106 -91 -181 9 -47 59 -102 104 -115 25
-8 401 -10 1194 -8 1150 3 1157 3 1184 24 53 39 69 71 69 134 0 63 -16 95 -69
134 -27 21 -33 21 -1194 23 -955 2 -1173 0 -1197 -11z" />
        <path
            d="M1685 3017 c-22 -13 -210 -137 -418 -276 -208 -139 -385 -255 -392
-258 -10 -3 -37 41 -89 144 -84 168 -100 185 -186 191 -45 3 -61 0 -89 -20
-48 -33 -70 -66 -77 -118 -6 -43 0 -58 122 -300 119 -235 132 -257 169 -278
31 -17 51 -22 88 -19 44 4 92 34 555 343 358 240 514 349 530 373 15 23 22 49
22 81 0 120 -133 198 -235 137z" />
        <path
            d="M2495 2706 c-67 -29 -105 -106 -91 -181 9 -47 59 -102 104 -115 25
-8 401 -10 1194 -8 1150 3 1157 3 1184 24 53 39 69 71 69 134 0 63 -16 95 -69
134 -27 21 -33 21 -1194 23 -955 2 -1173 0 -1197 -11z" />
        <path
            d="M1685 1737 c-22 -13 -210 -137 -418 -276 -208 -139 -385 -255 -392
-258 -10 -3 -37 41 -89 144 -84 168 -100 185 -186 191 -45 3 -61 0 -89 -20
-48 -33 -70 -66 -77 -118 -6 -43 0 -58 122 -300 119 -235 132 -257 169 -278
31 -17 51 -22 88 -19 44 4 92 34 555 343 358 240 514 349 530 373 15 23 22 49
22 81 0 120 -133 198 -235 137z" />
        <path
            d="M2495 1266 c-67 -29 -105 -106 -91 -181 9 -47 59 -102 104 -115 25
-8 401 -10 1194 -8 1150 3 1157 3 1184 24 53 39 69 71 69 134 0 63 -16 95 -69
134 -27 21 -33 21 -1194 23 -955 2 -1173 0 -1197 -11z" />
    </g>
</svg>