<?xml version="1.0" standalone="no"?>
<!DOCTYPE svg PUBLIC "-//W3C//DTD SVG 20010904//EN" "http://www.w3.org/TR/2001/REC-SVG-20010904/DTD/svg10.dtd">
<svg version="1.0" xmlns="http://www.w3.org/2000/svg"
    width="512.000000pt" height="512.000000pt" viewBox="0 0 512.000000 512.000000"
    preserveAspectRatio="xMidYMid meet">

    <g transform="translate(0.000000,512.000000) scale(0.100000,-0.100000)"
        stroke="none">
        <path
            d="M885 4061 c-213 -61 -385 -239 -440 -456 -23 -89 -23 -2001 0 -2090
45 -176 162 -324 325 -409 132 -69 65 -66 1320 -66 1258 0 1187 -4 1325 68
101 52 220 173 268 272 53 109 67 175 67 318 0 111 2 123 16 118 9 -4 130 -80
268 -169 138 -90 266 -170 285 -177 19 -8 62 -14 95 -14 102 1 191 52 244 143
l27 46 0 915 0 915 -27 46 c-53 91 -142 142 -244 143 -33 0 -76 -6 -95 -14
-19 -7 -148 -87 -288 -178 -140 -90 -260 -166 -268 -169 -10 -4 -13 19 -13
119 0 143 -14 209 -67 318 -49 101 -168 223 -269 273 -141 71 -67 67 -1330 66
-1048 0 -1144 -2 -1199 -18z m2407 -269 c78 -38 138 -100 177 -182 l26 -55 0
-995 0 -995 -27 -57 c-34 -74 -112 -152 -186 -186 l-57 -27 -1135 0 -1135 0
-66 32 c-79 39 -140 102 -177 181 l-27 57 0 995 0 995 26 55 c45 97 107 155
208 197 l56 23 1125 -3 1125 -2 67 -33z m1148 -1232 c0 -728 -2 -849 -14 -853
-14 -6 -72 30 -481 296 l-190 123 0 434 0 434 190 124 c407 264 467 301 481
295 12 -4 14 -125 14 -853z" />
        <path
            d="M1870 3271 c-53 -11 -95 -36 -129 -78 -60 -72 -61 -86 -61 -633 0
-547 1 -561 61 -633 64 -77 179 -103 265 -59 46 23 619 456 678 511 105 99
100 259 -10 362 -63 59 -611 479 -657 504 -49 27 -98 35 -147 26z m389 -521
c132 -102 240 -189 240 -195 0 -8 -442 -349 -549 -424 -20 -13 -20 -8 -20 429
l0 442 45 -34 c24 -18 152 -116 284 -218z" />
    </g>
</svg>