<?xml version="1.0" standalone="no"?>
<!DOCTYPE svg PUBLIC "-//W3C//DTD SVG 20010904//EN" "http://www.w3.org/TR/2001/REC-SVG-20010904/DTD/svg10.dtd">
<svg version="1.0" xmlns="http://www.w3.org/2000/svg"
    width="512.000000pt" height="512.000000pt" viewBox="0 0 512.000000 512.000000"
    preserveAspectRatio="xMidYMid meet">
    <metadata> Created by potrace 1.16, written by Peter Selinger 2001-2019 </metadata>
    <g transform="translate(0.000000,512.000000) scale(0.100000,-0.100000)" stroke="none">
        <path
            d="M2480 4740 c-523 -54 -961 -260 -1321 -619 -286 -287 -460 -598 -568
-1016 -9 -35 -17 -42 -57 -59 -60 -25 -144 -109 -179 -179 -59 -122 -58 -252
4 -371 l37 -73 -33 -39 c-92 -108 -186 -297 -230 -464 -35 -130 -44 -390 -18
-525 48 -258 160 -472 344 -656 180 -180 381 -288 630 -339 124 -25 338 -27
467 -5 293 52 568 216 755 452 l51 63 696 0 c754 0 796 2 977 55 166 49 311
128 429 236 142 130 246 342 263 536 l6 71 35 7 c87 16 169 79 213 165 20 37
24 60 24 130 0 101 -21 156 -82 217 l-39 39 38 45 c21 24 51 69 66 99 25 50
27 65 27 170 0 104 -3 121 -27 173 -35 74 -114 157 -181 190 l-54 26 -25 99
c-214 813 -907 1430 -1748 1556 -129 20 -386 28 -500 16z m345 -131 c241 -20
482 -85 700 -188 199 -94 365 -211 534 -375 181 -177 305 -347 411 -568 56
-117 140 -343 140 -380 0 -17 -99 -18 -1945 -18 l-1945 0 6 28 c40 163 156
429 255 582 317 490 838 826 1404 904 191 27 273 30 440 15z m1907 -1682 c211
-103 211 -391 0 -494 l-57 -28 -1185 -3 -1186 -3 -95 93 c-52 51 -129 116
-172 144 l-77 52 44 11 c113 28 202 9 343 -75 142 -85 190 -99 328 -98 131 1
187 18 306 94 104 66 141 80 219 87 100 9 163 -9 285 -82 150 -89 185 -100
325 -99 139 1 176 12 314 97 100 61 170 87 236 87 51 0 80 24 80 65 0 53 -33
69 -120 61 -90 -8 -152 -32 -274 -105 -112 -68 -177 -86 -276 -78 -78 7 -115
21 -219 87 -121 78 -174 94 -311 94 -140 1 -174 -9 -324 -98 -197 -118 -315
-116 -511 8 -105 66 -161 86 -270 93 -98 6 -180 -8 -261 -46 l-63 -29 -90 29
c-129 41 -245 59 -386 59 -288 0 -526 -81 -766 -262 -91 -68 -89 -69 -115 21
-45 152 55 308 219 341 23 4 933 7 2022 6 l1980 -1 57 -28z m-3211 -222 c338
-59 627 -267 788 -567 92 -170 134 -338 133 -533 -1 -491 -329 -921 -806
-1059 -490 -142 -1026 84 -1276 539 -147 269 -173 624 -65 910 98 261 297 485
540 607 76 39 220 87 305 103 101 18 279 18 381 0z m3280 -450 c21 -14 46 -42
58 -67 34 -72 25 -136 -27 -191 -50 -53 -77 -61 -220 -65 l-132 -4 41 67 c48
79 84 171 94 237 l7 47 47 3 c63 5 90 0 132 -27z m-1636 -1 c117 -62 311 -219
365 -295 l21 -29 -508 0 -508 0 -18 64 c-15 51 -54 138 -125 279 -2 4 160 7
361 7 l364 0 48 -26z m1325 16 c0 -28 -46 -141 -78 -194 -78 -130 -236 -297
-417 -441 -71 -56 -85 -63 -85 -44 0 6 -20 53 -45 104 -93 195 -250 395 -411
525 l-75 60 555 0 c375 0 556 -3 556 -10z m-797 -537 c49 -84 96 -184 117
-248 31 -98 71 -100 195 -8 102 75 256 207 330 282 l49 51 110 0 109 0 -6 -65
c-8 -81 -53 -217 -98 -291 -42 -70 -134 -172 -198 -218 -68 -50 -190 -109
-289 -140 -180 -56 -212 -59 -925 -63 l-658 -5 29 59 c38 76 90 238 98 308 4
30 9 55 11 55 2 0 16 -14 30 -30 120 -143 357 -32 329 153 -9 58 -41 106 -91
135 -33 19 -52 22 -107 20 -58 -3 -72 -8 -108 -37 -23 -18 -43 -31 -44 -30 -2
2 -6 37 -8 77 l-5 72 542 0 543 0 45 -77z" />
        <path
            d="M2660 4468 c-50 -34 -70 -93 -50 -150 19 -54 67 -88 125 -88 117 0
175 134 96 222 -23 26 -37 32 -82 35 -45 4 -60 1 -89 -19z" />
        <path
            d="M1963 4373 c-47 -20 -65 -33 -74 -55 -10 -25 -9 -33 8 -56 26 -36 53
-38 121 -11 93 36 119 87 66 128 -33 26 -44 25 -121 -6z" />
        <path
            d="M1640 4204 c-139 -93 -199 -142 -315 -258 -133 -133 -235 -267 -235
-307 0 -40 25 -61 68 -57 32 3 43 12 97 83 124 165 275 305 454 425 50 34 96
70 101 80 14 25 3 68 -20 80 -36 19 -66 10 -150 -46z" />
        <path
            d="M2094 4082 c-146 -69 -160 -272 -26 -367 38 -26 52 -30 110 -30 83 0
135 25 177 84 24 34 30 54 33 109 3 56 0 74 -20 112 -36 66 -91 101 -169 106
-49 4 -74 0 -105 -14z m141 -137 c16 -15 25 -36 25 -55 0 -38 -39 -80 -74 -80
-39 0 -79 41 -79 80 0 24 7 40 27 57 35 30 71 29 101 -2z" />
        <path
            d="M3467 3950 c-96 -18 -145 -142 -90 -228 36 -57 138 -81 203 -47 92
47 94 212 3 258 -40 20 -73 25 -116 17z" />
        <path
            d="M1403 3525 c-39 -17 -63 -61 -63 -116 0 -33 6 -47 34 -75 30 -30 40
-34 85 -34 69 0 111 36 118 101 7 58 -14 101 -61 123 -41 19 -70 20 -113 1z" />
        <path
            d="M3430 3462 c-38 -20 -80 -89 -80 -131 0 -44 38 -106 79 -129 71 -40
153 -20 199 48 32 48 28 137 -9 176 -52 56 -124 70 -189 36z" />
        <path
            d="M1192 2649 c-225 -29 -446 -142 -609 -312 -207 -217 -307 -486 -290
-785 27 -491 391 -894 879 -972 108 -18 321 -8 420 19 372 98 654 377 753 741
33 119 43 299 26 421 -84 569 -605 963 -1179 888z m88 -164 c0 -48 16 -65 64
-65 36 0 56 25 56 70 0 44 -11 43 120 18 122 -23 293 -102 380 -176 l35 -30
-22 -22 c-31 -28 -31 -83 -1 -104 31 -22 52 -20 87 10 l30 25 46 -63 c86 -116
149 -275 170 -425 l7 -53 -38 0 c-44 0 -74 -23 -74 -58 0 -39 27 -62 73 -62
l39 0 -6 -47 c-21 -147 -71 -278 -152 -399 -30 -46 -58 -84 -61 -84 -2 0 -16
9 -30 20 -28 22 -64 26 -94 10 -27 -15 -26 -80 1 -105 11 -10 20 -22 20 -26 0
-16 -168 -119 -250 -152 -79 -33 -212 -67 -259 -67 -16 0 -20 8 -23 42 -2 34
-8 45 -31 58 -24 13 -30 13 -55 0 -22 -13 -28 -24 -30 -58 -4 -48 -4 -48 -98
-31 -149 26 -327 107 -421 192 l-22 20 25 30 c59 71 -26 144 -100 86 -31 -24
-26 -27 -85 56 -71 100 -139 276 -155 403 l-7 52 37 0 c44 0 74 23 74 58 0 39
-27 62 -72 62 l-39 0 7 53 c9 74 50 212 84 282 16 33 52 93 80 133 l51 73 30
-26 c36 -30 59 -32 90 -7 30 25 30 74 0 106 l-23 24 65 46 c115 82 271 146
402 165 33 5 63 9 68 10 4 0 7 -19 7 -44z" />
        <path
            d="M1234 2219 c-294 -49 -514 -310 -514 -609 0 -277 191 -524 460 -595
73 -20 236 -19 314 1 101 26 193 80 277 164 120 119 179 261 179 430 0 106
-20 190 -64 278 -122 242 -385 376 -652 331z m187 -129 c180 -33 336 -180 384
-361 79 -296 -159 -599 -470 -599 -310 0 -546 300 -470 595 66 251 309 411
556 365z" />
        <path
            d="M1297 1942 c-14 -16 -17 -44 -17 -187 l0 -167 123 -133 c67 -73 132
-137 145 -144 29 -14 69 -4 82 19 24 45 12 67 -110 198 l-120 130 0 134 c0
118 -2 137 -18 151 -24 22 -65 21 -85 -1z" />
        <path d="M3467 1400 c-84 -66 -38 -200 68 -200 105 0 153 128 74 194 -39 33
-104 36 -142 6z" />
    </g>
</svg>