<?xml version="1.0" standalone="no"?>
<!DOCTYPE svg PUBLIC "-//W3C//DTD SVG 20010904//EN" "http://www.w3.org/TR/2001/REC-SVG-20010904/DTD/svg10.dtd">
<svg version="1.0" xmlns="http://www.w3.org/2000/svg"
    width="512.000000pt" height="512.000000pt" viewBox="0 0 512.000000 512.000000"
    preserveAspectRatio="xMidYMid meet">
    <metadata> Created by potrace 1.16, written by Peter Selinger 2001-2019 </metadata>
    <g transform="translate(0.000000,512.000000) scale(0.100000,-0.100000)"
        stroke="none">
        <path
            d="M3270 5105 c-103 -21 -223 -68 -311 -121 -101 -60 -241 -191 -305
-284 l-48 -70 -55 0 c-247 0 -613 -77 -818 -173 l-53 -24 -42 39 c-230 212
-589 207 -808 -12 -114 -114 -170 -250 -170 -413 0 -135 35 -245 112 -353 l30
-41 -51 -89 c-67 -118 -135 -282 -176 -424 -37 -128 -75 -337 -75 -410 0 -79
-1 -80 -99 -80 -47 0 -102 -5 -121 -10 -41 -11 -94 -61 -109 -103 -8 -19 -11
-300 -11 -867 l0 -838 -35 -6 c-42 -8 -98 -54 -115 -95 -8 -19 -10 -75 -8
-167 3 -125 5 -142 25 -170 42 -59 67 -64 305 -64 l213 0 27 -48 c60 -107 177
-204 303 -252 74 -28 241 -38 328 -20 140 29 300 145 369 267 l30 53 462 0
461 0 34 -57 c72 -119 210 -222 347 -258 75 -19 223 -19 298 0 138 36 282 144
351 263 l30 52 136 0 c124 0 139 2 170 23 19 12 44 42 57 67 20 40 22 59 22
188 0 126 -4 157 -30 262 l-30 118 81 78 c45 44 116 120 157 169 41 50 78 91
82 93 4 1 74 -87 156 -197 82 -110 152 -199 156 -198 17 5 504 667 526 715 38
84 52 150 52 252 0 172 -49 291 -169 410 -83 82 -172 133 -268 153 l-53 11 0
96 c0 211 -49 486 -125 695 -19 55 -65 159 -100 231 l-65 130 34 75 c67 144
81 221 80 429 0 173 -2 191 -28 274 -86 282 -290 519 -542 631 -136 61 -217
77 -389 81 -109 2 -181 -1 -225 -11z m342 -169 c271 -53 497 -229 604 -472 52
-118 68 -200 68 -339 0 -281 -32 -342 -459 -885 -179 -228 -334 -423 -343
-432 -16 -16 -36 7 -347 403 -182 231 -345 443 -362 471 -88 139 -128 299
-120 477 5 131 22 204 72 308 65 138 167 259 288 342 170 116 402 165 599 127z
m-2209 -518 c154 -71 262 -256 241 -413 -13 -101 -42 -151 -226 -397 l-179
-240 -171 229 c-94 125 -184 255 -200 289 -70 149 -35 327 87 450 82 81 173
115 300 111 72 -2 101 -8 148 -29z m1117 28 c0 -3 -10 -44 -22 -93 -33 -133
-31 -351 6 -487 34 -133 98 -260 188 -377 220 -288 774 -986 779 -983 4 2 175
218 380 480 l374 476 47 -99 c109 -226 167 -466 175 -723 l6 -165 -54 -12
c-135 -32 -286 -141 -354 -258 -124 -211 -110 -465 38 -669 l36 -49 -27 -36
c-43 -59 -158 -193 -195 -230 l-36 -34 -10 39 c-5 22 -51 205 -102 407 -98
391 -108 420 -179 472 -19 14 -50 30 -70 35 -20 6 -206 10 -442 10 l-408 0 0
178 c0 225 -15 266 -113 307 -32 13 -151 15 -953 15 l-917 0 7 73 c23 242 88
471 195 686 l47 93 159 -211 c87 -117 161 -210 166 -209 13 5 478 628 510 685
46 81 72 199 67 307 -3 50 -13 117 -23 148 -10 32 -16 60 -13 63 2 3 54 24
114 46 129 49 264 84 394 103 92 13 230 20 230 12z m-1530 -2291 l0 -315 208
104 207 104 208 -104 207 -104 0 315 0 315 325 0 325 0 0 -820 0 -820 -434 0
-433 0 -37 59 c-76 123 -216 222 -362 257 -88 20 -223 14 -315 -15 -120 -38
-245 -138 -312 -249 l-32 -52 -102 0 -103 0 0 820 0 820 325 0 325 0 0 -315z
m660 145 c0 -93 -2 -170 -5 -170 -3 0 -55 25 -115 55 -60 30 -117 55 -125 55
-8 0 -65 -25 -125 -55 -60 -30 -112 -55 -115 -55 -3 0 -5 77 -5 170 l0 170
245 0 245 0 0 -170z m3029 -19 c229 -87 335 -348 226 -561 -25 -50 -356 -491
-366 -488 -16 6 -332 435 -360 489 -162 320 166 687 500 560z m-1216 -322 c15
-11 31 -38 37 -62 6 -23 13 -50 16 -59 5 -15 -14 -17 -220 -20 -209 -3 -227
-4 -252 -24 -63 -47 -69 -63 -72 -217 -3 -135 -2 -144 20 -177 13 -19 39 -45
57 -57 33 -23 39 -23 315 -23 l281 0 61 -245 61 -245 -93 0 -94 0 -21 43 c-35
68 -164 189 -240 225 -209 99 -448 77 -619 -59 l-50 -39 0 490 0 490 394 0
c382 0 394 -1 419 -21z m119 -384 c9 -38 18 -73 18 -77 0 -5 -103 -8 -230 -8
l-230 0 0 80 0 80 212 -2 212 -3 18 -70z m-2400 -606 c58 -13 151 -72 197
-124 19 -22 48 -69 65 -105 28 -59 31 -74 31 -160 -1 -75 -5 -107 -24 -153
-29 -75 -120 -173 -193 -210 -205 -104 -452 -18 -551 191 -30 62 -32 75 -32
172 0 93 3 111 27 163 37 78 117 160 193 198 97 48 166 54 287 28z m2003 -6
c102 -36 191 -117 242 -221 25 -51 28 -67 28 -162 0 -99 -2 -109 -33 -173
-127 -257 -452 -315 -651 -115 -169 169 -159 437 21 593 110 94 261 124 393
78z m-2690 -383 l0 -80 -162 0 -163 0 0 80 0 80 163 0 162 0 0 -80z m1980 0
l0 -80 -410 0 -410 0 0 80 0 80 410 0 410 0 0 -80z m1315 0 l0 -80 -77 0 -78
0 0 80 0 80 78 0 77 0 0 -80z" />
        <path
            d="M3300 4774 c-230 -62 -414 -245 -476 -475 -23 -87 -23 -253 0 -339
62 -228 249 -415 476 -476 86 -23 243 -23 330 0 242 63 429 251 484 486 20 83
20 237 1 319 -55 232 -254 431 -485 485 -83 20 -257 20 -330 0z m291 -172
c239 -63 402 -313 360 -552 -34 -189 -179 -346 -366 -395 -301 -78 -605 160
-605 475 0 190 114 363 292 445 102 47 208 56 319 27z" />
        <path
            d="M1170 4291 c-72 -22 -139 -81 -166 -147 -22 -53 -18 -151 10 -209 42
-91 119 -138 227 -138 53 0 76 5 117 28 192 105 169 389 -37 460 -47 16 -109
18 -151 6z m105 -177 c22 -9 46 -59 38 -81 -29 -84 -133 -81 -149 4 -11 55 53
99 111 77z" />
        <path d="M1980 2890 l0 -90 85 0 85 0 0 90 0 90 -85 0 -85 0 0 -90z" />
        <path d="M2310 2890 l0 -90 85 0 85 0 0 90 0 90 -85 0 -85 0 0 -90z" />
        <path d="M2640 2890 l0 -90 85 0 85 0 0 90 0 90 -85 0 -85 0 0 -90z" />
        <path
            d="M4435 2127 c-60 -29 -97 -67 -124 -127 -44 -98 -15 -221 70 -293 52
-45 104 -60 185 -55 127 8 215 99 222 230 5 84 -14 140 -64 192 -50 52 -90 69
-169 73 -59 3 -78 0 -120 -20z m156 -176 c16 -16 29 -39 29 -51 0 -27 -52 -80
-78 -80 -11 0 -31 9 -46 21 -46 36 -32 111 24 132 29 11 42 7 71 -22z" />
        <path
            d="M986 815 c-56 -20 -107 -65 -136 -121 -33 -65 -35 -169 -3 -230 25
-47 82 -101 129 -120 41 -17 133 -18 185 -2 139 41 207 223 134 357 -60 109
-190 159 -309 116z m142 -188 c13 -12 22 -32 22 -49 0 -36 -40 -78 -75 -78
-33 0 -75 41 -75 74 0 39 11 57 43 71 35 15 52 11 85 -18z" />
        <path
            d="M2966 815 c-86 -33 -147 -111 -161 -207 -15 -98 47 -213 138 -257 59
-29 164 -29 223 0 81 39 144 139 144 229 0 43 -26 118 -54 155 -61 79 -195
116 -290 80z m150 -193 c34 -44 -5 -122 -61 -122 -35 0 -75 42 -75 78 0 28 29
64 60 74 20 7 60 -9 76 -30z" />
    </g>
</svg>