<?xml version="1.0" standalone="no"?>
<!DOCTYPE svg PUBLIC "-//W3C//DTD SVG 20010904//EN" "http://www.w3.org/TR/2001/REC-SVG-20010904/DTD/svg10.dtd">
<svg version="1.0" xmlns="http://www.w3.org/2000/svg"
    width="512.000000pt" height="512.000000pt" viewBox="0 0 512.000000 512.000000"
    preserveAspectRatio="xMidYMid meet">

    <g transform="translate(0.000000,512.000000) scale(0.100000,-0.100000)"
        stroke="none">
        <path d="M960 4480 l0 -80 80 0 80 0 0 80 0 80 -80 0 -80 0 0 -80z" />
        <path d="M1280 4480 l0 -80 480 0 480 0 0 80 0 80 -480 0 -480 0 0 -80z" />
        <path d="M1600 4160 l0 -80 480 0 480 0 0 80 0 80 -480 0 -480 0 0 -80z" />
        <path
            d="M185 3895 l-25 -24 0 -1391 0 -1391 25 -24 c23 -24 29 -25 165 -25
112 0 140 -3 140 -14 0 -32 73 -156 114 -194 49 -45 126 -88 183 -101 25 -6
-78 -9 -294 -10 l-333 -1 0 -80 0 -80 2400 0 2400 0 0 80 0 80 -332 1 c-283 0
-326 2 -288 13 116 32 201 101 255 208 19 39 35 77 35 84 0 11 28 14 140 14
136 0 142 1 165 25 l25 24 0 466 c0 291 -4 473 -10 485 -5 10 -95 67 -200 127
l-190 108 0 319 c0 221 -4 331 -12 360 -16 55 -99 138 -154 154 -30 9 -160 12
-458 12 l-416 0 0 375 0 376 -25 24 -24 25 -1631 0 -1631 0 -24 -25z m3175
-1095 l0 -960 -1520 0 -1520 0 0 960 0 960 1520 0 1520 0 0 -960z m560 -215
l0 -376 25 -24 24 -25 235 0 236 0 180 -102 c229 -131 232 -138 45 -138 -131
0 -137 -1 -160 -25 -25 -24 -25 -26 -25 -215 0 -189 0 -191 25 -215 23 -24 29
-25 160 -25 l135 0 0 -120 0 -120 -85 0 c-65 0 -85 3 -85 14 0 7 -16 45 -35
83 -43 86 -103 144 -193 186 -61 29 -76 32 -162 32 -86 0 -101 -3 -162 -32
-90 -42 -150 -100 -193 -186 -19 -38 -35 -76 -35 -83 0 -11 -32 -14 -165 -14
l-165 0 0 880 0 880 200 0 200 0 0 -375z m455 350 l25 -24 0 -296 0 -295 -160
0 -160 0 0 320 0 320 135 0 c131 0 137 -1 160 -25z m425 -1255 l0 -80 -80 0
-80 0 0 80 0 80 80 0 80 0 0 -80z m-1440 -240 l0 -240 -685 0 c-572 0 -685 2
-685 14 0 7 -16 45 -35 83 -43 86 -103 144 -193 186 -61 29 -76 32 -163 32
-90 0 -99 -2 -171 -38 -75 -37 -146 -101 -171 -154 -6 -13 -13 -23 -17 -23 -4
0 -11 10 -17 23 -25 53 -96 117 -171 154 -72 36 -81 38 -171 38 -87 0 -102 -3
-163 -32 -90 -42 -150 -100 -193 -186 -19 -38 -35 -76 -35 -83 0 -11 -20 -14
-85 -14 l-85 0 0 240 0 240 1520 0 1520 0 0 -240z m-2406 -92 c55 -16 138 -99
154 -154 28 -94 8 -169 -63 -239 -101 -102 -229 -102 -330 0 -102 101 -102
229 0 330 70 71 145 90 239 63z m720 0 c86 -26 166 -136 166 -228 0 -124 -116
-240 -240 -240 -92 0 -202 80 -228 166 -28 94 -8 169 63 239 70 71 145 90 239
63z m2640 0 c86 -26 166 -136 166 -228 0 -124 -116 -240 -240 -240 -124 0
-240 116 -240 240 0 63 23 114 75 165 70 71 145 90 239 63z m-464 -322 c0 -32
73 -156 114 -194 49 -45 126 -88 183 -101 23 -5 -472 -9 -1227 -9 -755 0
-1250 4 -1227 9 57 13 134 56 183 101 41 38 114 162 114 194 0 12 151 14 930
14 779 0 930 -2 930 -14z m-2593 -108 c34 -74 156 -165 249 -187 26 -6 -61 -9
-266 -9 -198 0 -292 3 -267 9 65 15 139 60 193 115 29 29 55 62 59 74 8 26 19
25 32 -2z" />
        <path
            d="M960 3187 c-49 -16 -133 -102 -148 -153 -16 -56 -16 -412 0 -468 16
-55 99 -138 154 -154 23 -7 74 -12 114 -12 40 0 91 5 114 12 55 16 138 99 154
154 22 74 22 74 -68 74 -65 0 -80 -3 -80 -15 0 -9 -11 -27 -25 -40 -21 -22
-33 -25 -95 -25 -62 0 -74 3 -95 25 -25 24 -25 26 -25 215 0 189 0 191 25 215
21 22 33 25 95 25 62 0 74 -3 95 -25 14 -13 25 -31 25 -40 0 -12 15 -15 80
-15 90 0 90 0 68 74 -16 55 -99 138 -154 154 -50 15 -186 14 -234 -1z" />
        <path
            d="M1680 3187 c-49 -16 -133 -102 -148 -153 -16 -56 -16 -412 0 -468 16
-55 99 -138 154 -154 23 -7 74 -12 114 -12 103 0 146 16 205 75 69 68 75 94
75 325 0 122 -4 208 -12 234 -16 55 -99 138 -154 154 -50 15 -186 14 -234 -1z
m215 -172 c25 -24 25 -26 25 -215 0 -189 0 -191 -25 -215 -21 -22 -33 -25 -95
-25 -62 0 -74 3 -95 25 -25 24 -25 26 -25 215 0 189 0 191 25 215 21 22 33 25
95 25 62 0 74 -3 95 -25z" />
        <path
            d="M2265 3175 l-25 -24 0 -351 0 -351 25 -24 c23 -24 28 -25 176 -25
186 0 218 8 284 75 69 68 75 94 75 325 0 231 -6 257 -75 325 -66 67 -98 75
-284 75 -148 0 -153 -1 -176 -25z m350 -160 c25 -24 25 -26 25 -215 0 -189 0
-191 -25 -215 -22 -23 -32 -25 -120 -25 l-95 0 0 240 0 240 95 0 c88 0 98 -2
120 -25z" />
        <path d="M4000 1920 l0 -80 160 0 160 0 0 80 0 80 -160 0 -160 0 0 -80z" />
        <path d="M800 1120 l0 -80 80 0 80 0 0 80 0 80 -80 0 -80 0 0 -80z" />
        <path d="M1520 1120 l0 -80 80 0 80 0 0 80 0 80 -80 0 -80 0 0 -80z" />
        <path d="M4160 1120 l0 -80 80 0 80 0 0 80 0 80 -80 0 -80 0 0 -80z" />
    </g>
</svg>